<?xml version="1.0" encoding="utf-8"?>
<!-- Generator: Adobe Illustrator 23.0.4, SVG Export Plug-In . SVG Version: 6.00 Build 0)  -->
<svg version="1.1" id="Layer_1" xmlns="http://www.w3.org/2000/svg" xmlns:xlink="http://www.w3.org/1999/xlink" x="0px" y="0px"
	 viewBox="0 0 178.07 233.72" style="enable-background:new 0 0 178.07 233.72;" xml:space="preserve">
<style type="text/css">
	.st0{fill-rule:evenodd;clip-rule:evenodd;fill:#D2A02A;}
</style>
<g>
	<path class="st0" d="M178.07,72.49c0.01-3.12-2.46-5.71-5.56-5.71H160c-2.69,0-5.31-0.98-7.33-2.76L115.1,31.15
		c-2.43-2.11-3.81-5.18-3.81-8.38V0H22.26v22.8c0,3.33-0.5,6.64-1.48,9.82L9.62,62.94C3.26,80.2,0,98.46,0,116.86
		c0,9.22,7.48,16.69,16.69,16.69c2.03,0,3.94-0.41,5.74-1.07c0.88,9.94,9.13,17.76,19.3,17.76c5.13,0,9.76-2.01,13.23-5.26
		c3.21,6.4,9.74,10.83,17.37,10.83c7.13,0,13.3-3.86,16.69-9.58v70.8c0,9.22,7.48,16.69,16.69,16.69s16.69-7.48,16.69-16.69V89.04
		l17.56,8.78c3.08,1.55,6.5,2.35,9.96,2.35h0.3C165.57,100.17,178,87.79,178.07,72.49"/>
</g>
</svg>
