<?xml version="1.0" encoding="utf-8"?>
<!-- Generator: Adobe Illustrator 17.1.0, SVG Export Plug-In . SVG Version: 6.00 Build 0)  -->
<!DOCTYPE svg PUBLIC "-//W3C//DTD SVG 1.1//EN" "http://www.w3.org/Graphics/SVG/1.1/DTD/svg11.dtd">
<svg version="1.1" id="Layer_1" xmlns="http://www.w3.org/2000/svg" xmlns:xlink="http://www.w3.org/1999/xlink" x="0px" y="0px"
	 viewBox="862.1 90.1 612 611.4" enable-background="new 862.1 90.1 612 611.4" xml:space="preserve">
<g id="Layer_3_1_">
	<polygon fill="#939598" points="862.1,603.2 862.1,188.6 960.3,188.6 960.3,90.1 1375.2,90.1 1375.2,188.6 1474.1,188.6 
		1474.1,603.5 1375.4,603.5 1375.4,701.5 960.3,701.5 960.5,603.2 	"/>
	<polygon fill="#E1E2E2" points="862.5,602.7 862.5,189.2 961.1,189.2 961.1,90.6 1374.4,90.6 1374.4,189.5 1473.1,189.5 
		1473.1,602.7 1374.7,602.7 1374.7,700.8 961.1,700.8 961.1,602.7 	"/>
	<g id="Layer_4_1_">
		<path fill="#FFFFFF" d="M1465.3,595.3h-98.6v96.9l-99.3,0.1l0.1-20.8l-198.4-0.1V692l-99.3,0.1l-0.1-97.1h-98.7l0.1-119.1h30
			v-31.1h-3.6v-92.2h5.3v-34h-31.7v-121h98.6v-96.2h98.8v27.7h27.5v-4.2l145.1-0.1v4.2h26.5v-27.6h98v97.5h99.7v120h-23.2v156.6
			h23.2v119.8H1465.3L1465.3,595.3z"/>
	</g>
</g>
<rect x="1107.2" y="142.7" fill="#1C3665" width="124" height="286.3"/>
<rect x="1107.2" y="464" fill="#1C3665" width="124" height="180.5"/>
<polygon fill="#1C3665" points="1350.5,213.1 1350.5,142.7 1262.4,142.7 1262.4,320 1350.4,320 1350.5,320 1410.5,320 1410.5,213.1 
	"/>
<rect x="1376.7" y="511.7" fill="#1C3665" width="33.9" height="69.8"/>
<polygon fill="#1C3665" points="1410.5,548.3 1356.9,548.3 1262.8,548.3 1262.8,581.5 1262.8,642.8 1356.9,642.8 1356.9,581.5 
	1410.5,581.5 "/>
<polygon fill="#6D8B3E" points="966.5,97.8 966.5,125.6 1070.6,125.6 1070.6,97.6 "/>
<rect x="1264.7" y="97.2" fill="#6D8B3E" width="102.8" height="28.7"/>
<rect x="869.2" y="193.2" fill="#6D8B3E" width="27.7" height="127.8"/>
<rect x="868.7" y="472.4" fill="#6D8B3E" width="28.9" height="126.3"/>
<rect x="964.7" y="667.5" fill="#6D8B3E" width="106" height="24.8"/>
<rect x="1265.2" y="667.5" fill="#6D8B3E" width="105.5" height="25.9"/>
<rect x="1439.7" y="472.4" fill="#6D8B3E" width="28.3" height="122.6"/>
<rect x="1438.5" y="195.6" fill="#6D8B3E" width="29.3" height="125.6"/>
<rect x="1264.4" y="466.5" fill="#939393" width="83.3" height="70.2"/>
<rect x="1263.9" y="393.6" fill="#939393" width="77.3" height="33.3"/>
<rect x="1333.8" y="407.5" fill="#939393" width="36" height="84.3"/>
<rect x="988.4" y="257.7" fill="#939393" width="84.3" height="38.2"/>
<rect x="1370.2" y="349.5" fill="#650D0A" width="68.7" height="143.4"/>
<rect x="1263.9" y="339.3" fill="#650D0A" width="106.4" height="55.9"/>
<polygon fill="#1C3665" points="1073.8,228.2 1073.8,142.7 979.9,142.7 979.9,213.1 920.6,213.1 920.6,584.8 981.9,584.8 
	981.9,584.3 983.5,584.3 983.5,646.6 1073.7,646.6 1073.7,584.3 1048.5,584.3 1048.5,310.3 981.9,310.3 981.9,228.2 "/>
<rect x="1055.1" y="310" fill="#F89B43" width="18.7" height="263.5"/>
<text transform="matrix(1.0027 0 0 1 1005.8139 622.4059)" fill="#FFFFFF" font-family="'GillSansMT'" font-size="12.9886">PS 3545</text>
<text transform="matrix(1.0027 0 0 1 985.8362 335.325)" fill="#FFFFFF" font-family="'GillSansMT'" font-size="12.9886">PT 2617</text>
<g>
	<g>
		<g>
			<polygon fill="#FFFFFF" points="1011.1,354.2 1007.4,359.8 1009.3,359.8 1009.7,359.8 1009.7,600.4 1012.4,600.4 1012.4,359.8 
				1012.9,359.8 1014.7,359.8 			"/>
		</g>
	</g>
</g>
<g>
	<g>
		<g>
			<polygon fill="#FFFFFF" points="1025.5,169.9 1022,174.1 1023.8,174.1 1024.3,174.1 1024.3,202.8 1026.8,202.8 1026.8,174.1 
				1027.3,174.1 1029.1,174.1 			"/>
		</g>
	</g>
</g>
<text transform="matrix(1.0027 0 0 1 957.1494 434.021)" fill="#FFFFFF" font-family="'GillSansMT'" font-size="12.9886">PT 3</text>
<text transform="matrix(1.0027 0 0 1 1005.6795 159.8767)" fill="#FFFFFF" font-family="'GillSansMT'" font-size="12.9886">PZ 90</text>
<text transform="matrix(1.0027 0 0 1 1010.609 219.899)" fill="#FFFFFF" font-family="'GillSansMT'" font-size="12.9886">PT 2653</text>
<text transform="matrix(1.0027 0 0 1 1142.7928 174.7771)" fill="#FFFFFF" font-family="'GillSansMT'" font-size="12.9886">PR 4579</text>
<text transform="matrix(1.0027 0 0 1 1142.6168 390.6694)" enable-background="new    "><tspan x="0" y="0" fill="#FFFFFF" font-family="'GillSansMT'" font-size="12.9886">PR 9949.2</tspan><tspan x="15.4" y="15.6" fill="#FFFFFF" font-family="'GillSansMT'" font-size="12.9886">PS 1</tspan><tspan x="8.9" y="31.2" fill="#FFFFFF" font-family="'GillSansMT'" font-size="12.9886">PS 507</tspan></text>
<g>
	<g>
		<g>
			<g>
				<g>
					<rect x="1167.1" y="189.8" fill="none" width="2.6" height="3.2"/>
				</g>
				<g>
					<g>
						<rect x="1167.1" y="190.6" fill="none" width="2.6" height="1.7"/>
					</g>
					<g>
						<rect x="1167.1" y="190.6" fill="#FFFFFF" width="2.6" height="0.8"/>
					</g>
					<g>
						<rect x="1167.1" y="191.7" fill="#FFFFFF" width="2.6" height="0.4"/>
					</g>
				</g>
			</g>
			<g>
				<rect x="1167.1" y="193" fill="#FFFFFF" width="2.6" height="3.4"/>
			</g>
			<g>
				<rect x="1167.1" y="196.4" fill="#FFFFFF" width="2.6" height="3.4"/>
			</g>
			<g>
				<rect x="1167.1" y="199.8" fill="#FFFFFF" width="2.6" height="3.4"/>
			</g>
			<g>
				<rect x="1167.1" y="203.2" fill="#FFFFFF" width="2.6" height="3.4"/>
			</g>
			<g>
				<rect x="1167.1" y="206.6" fill="#FFFFFF" width="2.6" height="3.4"/>
			</g>
			<g>
				<rect x="1167.1" y="210" fill="#FFFFFF" width="2.6" height="3.4"/>
			</g>
			<g>
				<rect x="1167.1" y="213.3" fill="#FFFFFF" width="2.6" height="3.4"/>
			</g>
			<g>
				<rect x="1167.1" y="216.7" fill="#FFFFFF" width="2.6" height="3.4"/>
			</g>
			<g>
				<rect x="1167.1" y="220.1" fill="#FFFFFF" width="2.6" height="3.4"/>
			</g>
			<g>
				<rect x="1167.1" y="223.4" fill="#FFFFFF" width="2.6" height="3.4"/>
			</g>
			<g>
				<rect x="1167.1" y="226.8" fill="#FFFFFF" width="2.6" height="3.4"/>
			</g>
			<g>
				<rect x="1167.1" y="230.2" fill="#FFFFFF" width="2.6" height="3.4"/>
			</g>
			<g>
				<rect x="1167.1" y="233.6" fill="#FFFFFF" width="2.6" height="3.4"/>
			</g>
			<g>
				<rect x="1167.1" y="237.1" fill="#FFFFFF" width="2.6" height="3.4"/>
			</g>
			<g>
				<rect x="1167.1" y="240.4" fill="#FFFFFF" width="2.6" height="3.4"/>
			</g>
			<g>
				<rect x="1167.1" y="243.9" fill="#FFFFFF" width="2.6" height="3.4"/>
			</g>
			<g>
				<rect x="1167.1" y="247.3" fill="#FFFFFF" width="2.6" height="3.4"/>
			</g>
			<g>
				<rect x="1167.1" y="250.6" fill="#FFFFFF" width="2.6" height="3.4"/>
			</g>
			<g>
				<rect x="1167.1" y="253.9" fill="#FFFFFF" width="2.6" height="3.4"/>
			</g>
			<g>
				<rect x="1167.1" y="257.3" fill="#FFFFFF" width="2.6" height="3.4"/>
			</g>
			<g>
				<rect x="1167.1" y="260.7" fill="#FFFFFF" width="2.6" height="3.4"/>
			</g>
			<g>
				<rect x="1167.1" y="264.1" fill="#FFFFFF" width="2.6" height="3.4"/>
			</g>
			<g>
				<rect x="1167.1" y="267.6" fill="#FFFFFF" width="2.6" height="3.4"/>
			</g>
			<g>
				<rect x="1167.1" y="270.9" fill="#FFFFFF" width="2.6" height="3.4"/>
			</g>
			<g>
				<rect x="1167.1" y="274.4" fill="#FFFFFF" width="2.6" height="3.4"/>
			</g>
			<g>
				<rect x="1167.1" y="277.7" fill="#FFFFFF" width="2.6" height="3.4"/>
			</g>
			<g>
				<rect x="1167.1" y="281.1" fill="#FFFFFF" width="2.6" height="3.4"/>
			</g>
			<g>
				<rect x="1167.1" y="284.6" fill="#FFFFFF" width="2.6" height="3.4"/>
			</g>
			<g>
				<rect x="1167.1" y="287.9" fill="#FFFFFF" width="2.6" height="3.4"/>
			</g>
			<g>
				<rect x="1167.1" y="291.2" fill="#FFFFFF" width="2.6" height="3.4"/>
			</g>
			<g>
				<rect x="1167.1" y="294.6" fill="#FFFFFF" width="2.6" height="3.4"/>
			</g>
			<g>
				<rect x="1167.1" y="298" fill="#FFFFFF" width="2.6" height="3.4"/>
			</g>
			<g>
				<rect x="1167.1" y="301.4" fill="#FFFFFF" width="2.6" height="3.4"/>
			</g>
			<g>
				<rect x="1167.1" y="304.9" fill="#FFFFFF" width="2.6" height="3.4"/>
			</g>
			<g>
				<rect x="1167.1" y="308.2" fill="#FFFFFF" width="2.6" height="3.4"/>
			</g>
			<g>
				<rect x="1167.1" y="311.6" fill="#FFFFFF" width="2.6" height="3.4"/>
			</g>
			<g>
				<rect x="1167.1" y="315" fill="#FFFFFF" width="2.6" height="3.4"/>
			</g>
			<g>
				<rect x="1167.1" y="318.4" fill="#FFFFFF" width="2.6" height="3.4"/>
			</g>
			<g>
				<rect x="1167.1" y="321.9" fill="#FFFFFF" width="2.6" height="3.4"/>
			</g>
			<g>
				<rect x="1167.1" y="325.2" fill="#FFFFFF" width="2.6" height="3.4"/>
			</g>
			<g>
				<rect x="1167.1" y="328.7" fill="#FFFFFF" width="2.6" height="3.4"/>
			</g>
			<g>
				<rect x="1167.1" y="331.9" fill="#FFFFFF" width="2.6" height="3.4"/>
			</g>
			<g>
				<rect x="1167.1" y="335.3" fill="#FFFFFF" width="2.6" height="3.4"/>
			</g>
			<g>
				<rect x="1167.1" y="338.7" fill="#FFFFFF" width="2.6" height="3.4"/>
			</g>
			<g>
				<rect x="1167.1" y="342.1" fill="#FFFFFF" width="2.6" height="3.4"/>
			</g>
			<g>
				<rect x="1167.1" y="345.5" fill="#FFFFFF" width="2.6" height="3.4"/>
			</g>
			<g>
				<rect x="1167.1" y="348.9" fill="#FFFFFF" width="2.6" height="3.4"/>
			</g>
			<g>
				<rect x="1167.1" y="352.4" fill="#FFFFFF" width="2.6" height="3.4"/>
			</g>
			<g>
				<rect x="1167.1" y="355.7" fill="#FFFFFF" width="2.6" height="3.4"/>
			</g>
			<g>
				<rect x="1167.1" y="359.2" fill="#FFFFFF" width="2.6" height="3.4"/>
			</g>
			<g>
				<rect x="1167.1" y="362.5" fill="#FFFFFF" width="2.6" height="3.4"/>
			</g>
			<g>
				<rect x="1167.1" y="365.9" fill="#FFFFFF" width="2.6" height="3.4"/>
			</g>
			<g>
				<polygon fill="#FFFFFF" points="1166.6,369.4 1164.8,369.4 1168.4,375.1 1172,369.4 1170.2,369.4 				"/>
			</g>
		</g>
	</g>
</g>
<text transform="matrix(1.0027 0 0 1 1151.4917 485.7086)" fill="#FFFFFF" font-family="'GillSansMT'" font-size="12.9886">PS 507</text>
<text transform="matrix(1.0027 0 0 1 1144.4447 633.735)" fill="#FFFFFF" font-family="'GillSansMT'" font-size="12.9886">PS 3545</text>
<g>
	<g>
		<g>
			<polygon fill="#FFFFFF" points="1170.2,605.9 1169.7,605.9 1169.7,494.7 1167.1,494.7 1167.1,605.9 1166.6,605.9 1164.8,605.9 
				1168.4,610.2 1172,605.9 			"/>
		</g>
	</g>
</g>
<text transform="matrix(1.0027 0 0 1 1281.9929 165.5604)" fill="#FFFFFF" font-family="'GillSansMT'" font-size="12.9886">PR 4579</text>
<text transform="matrix(1.0027 0 0 1 1291.0836 308.445)" fill="#FFFFFF" font-family="'GillSansMT'" font-size="12.9886">PR 658</text>
<text transform="matrix(1.0027 0 0 1 1277.2107 373.442)" fill="#FFFFFF" font-family="'GillSansMT'" font-size="12.9886">Seminar Room</text>
<text transform="matrix(1.0027 0 0 1 1396.3217 416.7263)" fill="#FFFFFF" font-family="'GillSansMT'" font-size="12.9886">Rm</text>
<text transform="matrix(1.0027 0 0 1 1395.5205 432.3123)" fill="#FFFFFF" font-family="'GillSansMT'" font-size="12.9886">936</text>
<text transform="matrix(1.0027 0 0 1 1382.9155 528.6815)" enable-background="new    "><tspan x="0" y="0" fill="#FFFFFF" font-family="'GillSansMT'" font-size="12.9886">PR </tspan><tspan x="0" y="15.6" fill="#FFFFFF" font-family="'GillSansMT'" font-size="12.9886">658</tspan></text>
<text transform="matrix(1.0027 0 0 1 1298.9165 615.1648)" fill="#FFFFFF" font-family="'GillSansMT'" font-size="12.9886">PR 1</text>
<text transform="matrix(1.0027 0 0 1 1270.486 634.5026)" fill="#FFFFFF" font-family="'GillSansMT'" font-size="10.9903">Oversized Books</text>
<g>
	<g>
		<g>
			<polygon fill="#FFFFFF" points="1306.5,177.4 1302.9,181.9 1304.7,181.9 1305.2,181.9 1305.2,280.9 1307.8,280.9 1307.8,181.9 
				1308.3,181.9 1310.1,181.9 			"/>
		</g>
	</g>
</g>
<g>
	<g>
		<g>
			<polygon fill="#FFFFFF" points="1342.5,557.3 1338.9,561.7 1340.7,561.7 1341.2,561.7 1341.2,622.1 1343.8,622.1 1343.8,561.7 
				1344.3,561.7 1346.1,561.7 			"/>
		</g>
	</g>
</g>
<polyline points="1368.1,363.6 1370.3,363.4 1370.3,363.6 1370.3,510.9 1368.1,510.9 1368.1,499.2 1348.9,499.2 1348.9,535.2 
	1351.7,535.2 1351.7,537.5 1263,537.5 1263,515.9 1265.3,515.9 1265.3,535.2 1346.6,535.2 1346.6,499.2 1265.3,499.2 1265.3,502.3 
	1263,502.3 1263,464.5 1279.6,464.5 1279.6,466.8 1265.3,466.8 1265.3,491.8 1269.8,491.8 1269.8,497 1340.1,497 1340.1,466.8 
	1328.8,466.8 1328.8,464.5 1333,464.5 1333,462.6 1334.5,462.6 1334.5,464.5 1342.4,464.5 1342.4,488.4 1354.4,488.4 1354.4,478.5 
	1368.1,478.5 1368.1,448.7 1334.5,448.7 1334.5,451.3 1333,451.3 1333,441.5 1334.5,441.5 1334.5,442.9 1368.1,442.9 1368.1,410.1 
	1342.4,410.1 1342.4,427.5 1334.5,427.5 1334.5,430.1 1333,430.1 1333,427.5 1328.8,427.5 1328.8,425.2 1340.1,425.2 1340.1,395.7 
	1269.8,395.7 1269.8,400.3 1265.3,400.3 1265.3,425.2 1279.6,425.2 1279.6,427.5 1263,427.5 1263,388.5 1265.3,388.5 1265.3,393.4 
	1368.1,393.4 1368.1,363.6 "/>
<polyline points="1361.2,596.8 1368.1,596.8 1368.1,590 1361.2,590 1361.2,596.8 "/>
<polyline points="968.3,590 968.3,596.8 975.1,596.8 975.1,590 968.3,590 "/>
<polyline points="975.1,197 968.3,197 968.3,203.8 975.1,203.8 975.1,197 "/>
<polyline points="1368.1,203.8 1368.1,197 1361.2,197 1361.2,203.8 1368.1,203.8 "/>
<polyline points="968.3,596.8 975.1,596.8 975.1,590 968.3,590 968.3,596.8 "/>
<line fill="none" stroke="#000000" stroke-width="0.3568" stroke-linecap="round" stroke-linejoin="round" stroke-miterlimit="10" x1="1342.4" y1="395.7" x2="1342.4" y2="408.6"/>
<line fill="none" stroke="#000000" stroke-width="0.3568" stroke-linecap="round" stroke-linejoin="round" stroke-miterlimit="10" x1="1361.2" y1="497" x2="1342.4" y2="497"/>
<line fill="none" stroke="#000000" stroke-width="0.3568" stroke-linecap="round" stroke-linejoin="round" stroke-miterlimit="10" x1="1361.2" y1="395.7" x2="1342.4" y2="395.7"/>
<line fill="none" stroke="#000000" stroke-width="0.3568" stroke-linecap="round" stroke-linejoin="round" stroke-miterlimit="10" x1="1309.2" y1="535.2" x2="1309.2" y2="532.9"/>
<g>
	
		<polyline fill="none" stroke="#000000" stroke-width="0.3568" stroke-linecap="round" stroke-linejoin="round" stroke-miterlimit="10" points="
		1291,516.6 1328.8,516.6 1328.8,517.8 1291,517.8 1291,516.6 	"/>
	
		<line fill="none" stroke="#000000" stroke-width="0.3568" stroke-linecap="round" stroke-linejoin="round" stroke-miterlimit="10" x1="1292.5" y1="516.6" x2="1292.5" y2="499.2"/>
	
		<line fill="none" stroke="#000000" stroke-width="0.3568" stroke-linecap="round" stroke-linejoin="round" stroke-miterlimit="10" x1="1296.7" y1="516.6" x2="1296.7" y2="499.2"/>
	
		<line fill="none" stroke="#000000" stroke-width="0.3568" stroke-linecap="round" stroke-linejoin="round" stroke-miterlimit="10" x1="1300.8" y1="516.6" x2="1300.8" y2="499.2"/>
	
		<line fill="none" stroke="#000000" stroke-width="0.3568" stroke-linecap="round" stroke-linejoin="round" stroke-miterlimit="10" x1="1305" y1="516.6" x2="1305" y2="499.2"/>
	
		<line fill="none" stroke="#000000" stroke-width="0.3568" stroke-linecap="round" stroke-linejoin="round" stroke-miterlimit="10" x1="1309.2" y1="516.6" x2="1309.2" y2="499.2"/>
	
		<line fill="none" stroke="#000000" stroke-width="0.3568" stroke-linecap="round" stroke-linejoin="round" stroke-miterlimit="10" x1="1313.3" y1="516.6" x2="1313.3" y2="499.2"/>
	
		<line fill="none" stroke="#000000" stroke-width="0.3568" stroke-linecap="round" stroke-linejoin="round" stroke-miterlimit="10" x1="1317.5" y1="516.6" x2="1317.5" y2="499.2"/>
	
		<line fill="none" stroke="#000000" stroke-width="0.3568" stroke-linecap="round" stroke-linejoin="round" stroke-miterlimit="10" x1="1321.7" y1="516.6" x2="1321.7" y2="499.2"/>
	
		<line fill="none" stroke="#000000" stroke-width="0.3568" stroke-linecap="round" stroke-linejoin="round" stroke-miterlimit="10" x1="1325.8" y1="516.6" x2="1325.8" y2="499.2"/>
	
		<line fill="none" stroke="#000000" stroke-width="0.3568" stroke-linecap="round" stroke-linejoin="round" stroke-miterlimit="10" x1="1320.1" y1="517.8" x2="1307.3" y2="535.5"/>
	
		<line fill="none" stroke="#000000" stroke-width="0.3568" stroke-linecap="round" stroke-linejoin="round" stroke-miterlimit="10" x1="1311.8" y1="517.8" x2="1298.9" y2="535.5"/>
	
		<line fill="none" stroke="#000000" stroke-width="0.3568" stroke-linecap="round" stroke-linejoin="round" stroke-miterlimit="10" x1="1325.8" y1="535.2" x2="1325.8" y2="517.8"/>
	
		<line fill="none" stroke="#000000" stroke-width="0.3568" stroke-linecap="round" stroke-linejoin="round" stroke-miterlimit="10" x1="1321.7" y1="535.2" x2="1321.7" y2="517.8"/>
	
		<line fill="none" stroke="#000000" stroke-width="0.3568" stroke-linecap="round" stroke-linejoin="round" stroke-miterlimit="10" x1="1317.5" y1="535.2" x2="1317.5" y2="521.4"/>
	
		<line fill="none" stroke="#000000" stroke-width="0.3568" stroke-linecap="round" stroke-linejoin="round" stroke-miterlimit="10" x1="1313.3" y1="535.2" x2="1313.3" y2="527.2"/>
	
		<line fill="none" stroke="#000000" stroke-width="0.3568" stroke-linecap="round" stroke-linejoin="round" stroke-miterlimit="10" x1="1305" y1="527.2" x2="1305" y2="517.8"/>
	
		<line fill="none" stroke="#000000" stroke-width="0.3568" stroke-linecap="round" stroke-linejoin="round" stroke-miterlimit="10" x1="1300.8" y1="532.9" x2="1300.8" y2="517.8"/>
	
		<line fill="none" stroke="#000000" stroke-width="0.3568" stroke-linecap="round" stroke-linejoin="round" stroke-miterlimit="10" x1="1296.7" y1="535.2" x2="1296.7" y2="517.8"/>
	
		<line fill="none" stroke="#000000" stroke-width="0.3568" stroke-linecap="round" stroke-linejoin="round" stroke-miterlimit="10" x1="1292.5" y1="535.2" x2="1292.5" y2="517.8"/>
	
		<line fill="none" stroke="#000000" stroke-width="0.3568" stroke-linecap="round" stroke-linejoin="round" stroke-miterlimit="10" x1="1309.2" y1="521.4" x2="1309.2" y2="517.8"/>
</g>
<rect x="1293.2" y="425.2" width="21.9" height="2.3"/>
<rect x="1293.2" y="464.5" width="21.9" height="2.3"/>
<line fill="none" stroke="#000000" stroke-width="0.3568" stroke-linecap="round" stroke-linejoin="round" stroke-miterlimit="10" x1="1272.1" y1="514.1" x2="1265.3" y2="502.3"/>
<line fill="none" stroke="#000000" stroke-width="0.3568" stroke-linecap="round" stroke-linejoin="round" stroke-miterlimit="10" x1="1064.6" y1="280" x2="1071.5" y2="291.8"/>
<line fill="none" stroke="#000000" stroke-width="0.3568" stroke-linecap="round" stroke-linejoin="round" stroke-miterlimit="10" x1="1027.7" y1="259" x2="1027.7" y2="261.2"/>
<g>
	
		<line fill="none" stroke="#000000" stroke-width="0.3568" stroke-linecap="round" stroke-linejoin="round" stroke-miterlimit="10" x1="1027.7" y1="272.7" x2="1027.7" y2="276.3"/>
	
		<line fill="none" stroke="#000000" stroke-width="0.3568" stroke-linecap="round" stroke-linejoin="round" stroke-miterlimit="10" x1="1044.2" y1="259" x2="1044.2" y2="276.3"/>
	
		<line fill="none" stroke="#000000" stroke-width="0.3568" stroke-linecap="round" stroke-linejoin="round" stroke-miterlimit="10" x1="1040.1" y1="259" x2="1040.1" y2="276.3"/>
	
		<line fill="none" stroke="#000000" stroke-width="0.3568" stroke-linecap="round" stroke-linejoin="round" stroke-miterlimit="10" x1="1035.9" y1="261.2" x2="1035.9" y2="276.3"/>
	
		<line fill="none" stroke="#000000" stroke-width="0.3568" stroke-linecap="round" stroke-linejoin="round" stroke-miterlimit="10" x1="1031.7" y1="267" x2="1031.7" y2="276.3"/>
	
		<line fill="none" stroke="#000000" stroke-width="0.3568" stroke-linecap="round" stroke-linejoin="round" stroke-miterlimit="10" x1="1023.4" y1="259" x2="1023.4" y2="267"/>
	
		<line fill="none" stroke="#000000" stroke-width="0.3568" stroke-linecap="round" stroke-linejoin="round" stroke-miterlimit="10" x1="1019.3" y1="259" x2="1019.3" y2="272.7"/>
	
		<line fill="none" stroke="#000000" stroke-width="0.3568" stroke-linecap="round" stroke-linejoin="round" stroke-miterlimit="10" x1="1015.2" y1="259" x2="1015.2" y2="276.3"/>
	
		<line fill="none" stroke="#000000" stroke-width="0.3568" stroke-linecap="round" stroke-linejoin="round" stroke-miterlimit="10" x1="1011" y1="259" x2="1011" y2="276.3"/>
	
		<line fill="none" stroke="#000000" stroke-width="0.3568" stroke-linecap="round" stroke-linejoin="round" stroke-miterlimit="10" x1="1024.9" y1="276.3" x2="1037.5" y2="259"/>
	
		<line fill="none" stroke="#000000" stroke-width="0.3568" stroke-linecap="round" stroke-linejoin="round" stroke-miterlimit="10" x1="1016.6" y1="276.3" x2="1029.2" y2="259"/>
	
		<line fill="none" stroke="#000000" stroke-width="0.3568" stroke-linecap="round" stroke-linejoin="round" stroke-miterlimit="10" x1="1011" y1="277.4" x2="1011" y2="294.8"/>
	
		<line fill="none" stroke="#000000" stroke-width="0.3568" stroke-linecap="round" stroke-linejoin="round" stroke-miterlimit="10" x1="1015.2" y1="277.4" x2="1015.2" y2="294.8"/>
	
		<line fill="none" stroke="#000000" stroke-width="0.3568" stroke-linecap="round" stroke-linejoin="round" stroke-miterlimit="10" x1="1019.3" y1="277.4" x2="1019.3" y2="294.8"/>
	
		<line fill="none" stroke="#000000" stroke-width="0.3568" stroke-linecap="round" stroke-linejoin="round" stroke-miterlimit="10" x1="1023.4" y1="277.4" x2="1023.4" y2="294.8"/>
	
		<line fill="none" stroke="#000000" stroke-width="0.3568" stroke-linecap="round" stroke-linejoin="round" stroke-miterlimit="10" x1="1027.7" y1="277.4" x2="1027.7" y2="294.8"/>
	
		<line fill="none" stroke="#000000" stroke-width="0.3568" stroke-linecap="round" stroke-linejoin="round" stroke-miterlimit="10" x1="1031.7" y1="277.4" x2="1031.7" y2="294.8"/>
	
		<line fill="none" stroke="#000000" stroke-width="0.3568" stroke-linecap="round" stroke-linejoin="round" stroke-miterlimit="10" x1="1035.9" y1="277.4" x2="1035.9" y2="294.8"/>
	
		<line fill="none" stroke="#000000" stroke-width="0.3568" stroke-linecap="round" stroke-linejoin="round" stroke-miterlimit="10" x1="1040.1" y1="277.4" x2="1040.1" y2="294.8"/>
	
		<line fill="none" stroke="#000000" stroke-width="0.3568" stroke-linecap="round" stroke-linejoin="round" stroke-miterlimit="10" x1="1044.2" y1="277.4" x2="1044.2" y2="294.8"/>
	
		<polyline fill="none" stroke="#000000" stroke-width="0.3568" stroke-linecap="round" stroke-linejoin="round" stroke-miterlimit="10" points="
		1007.9,277.4 1007.9,276.3 1045.7,276.3 1045.7,277.4 1007.9,277.4 	"/>
</g>
<polyline points="975.1,295.2 968.3,295.2 968.3,302 975.1,302 975.1,295.2 "/>
<polyline points="975.1,393.4 968.3,393.4 968.3,400.3 975.1,400.3 975.1,393.4 "/>
<polyline points="975.1,491.8 968.3,491.8 968.3,498.6 975.1,498.6 975.1,491.8 "/>
<polyline points="1073.3,197 1066.5,197 1066.5,203.8 1073.3,203.8 1073.3,197 "/>
<polyline points="1073.3,393.4 1066.5,393.4 1066.5,400.3 1073.3,400.3 1073.3,393.4 "/>
<polyline points="1073.3,491.8 1066.5,491.8 1066.5,498.6 1073.3,498.6 1073.3,491.8 "/>
<polyline points="1171.6,197 1164.8,197 1164.8,203.8 1171.6,203.8 1171.6,197 "/>
<polyline points="1171.6,295.2 1164.8,295.2 1164.8,302 1171.6,302 1171.6,295.2 "/>
<polyline points="1171.6,393.4 1164.8,393.4 1164.8,400.3 1171.6,400.3 1171.6,393.4 "/>
<polyline points="1171.6,491.8 1164.8,491.8 1164.8,498.6 1171.6,498.6 1171.6,491.8 "/>
<polyline points="1269.8,197 1263,197 1263,203.8 1269.8,203.8 1269.8,197 "/>
<polyline points="1269.8,295.2 1263,295.2 1263,302 1269.8,302 1269.8,295.2 "/>
<polyline points="1368.1,295.2 1361.2,295.2 1361.2,302 1368.1,302 1368.1,295.2 "/>
<polyline points="1171.6,590 1164.8,590 1164.8,596.8 1171.6,596.8 1171.6,590 "/>
<polyline points="1073.3,590 1066.5,590 1066.5,596.8 1073.3,596.8 1073.3,590 "/>
<polyline points="1269.8,590 1263,590 1263,596.8 1269.8,596.8 1269.8,590 "/>
<line fill="none" stroke="#000000" stroke-width="0.3568" stroke-linecap="round" stroke-linejoin="round" stroke-miterlimit="10" x1="984.6" y1="132.7" x2="994.4" y2="127.1"/>
<polyline points="966.8,127.1 983,127.1 983,125.6 966.8,125.6 "/>
<line fill="none" stroke="#000000" stroke-width="0.3568" stroke-linecap="round" stroke-linejoin="round" stroke-miterlimit="10" x1="1006.8" y1="132.7" x2="997.1" y2="127.1"/>
<polyline points="996.3,97.6 996.3,125.6 997.1,125.6 997.1,127.1 994.4,127.1 994.4,125.6 994.7,125.6 994.7,97.6 "/>
<line fill="none" stroke="#000000" stroke-width="0.3568" stroke-linecap="round" stroke-linejoin="round" stroke-miterlimit="10" x1="1028.4" y1="132.7" x2="1038.2" y2="127.1"/>
<polyline points="1016.6,97.2 1016.6,125.6 1008.4,125.6 1008.4,127.1 1026.8,127.1 1026.8,125.6 1018.1,125.6 1018.1,97.2 "/>
<line fill="none" stroke="#000000" stroke-width="0.3568" stroke-linecap="round" stroke-linejoin="round" stroke-miterlimit="10" x1="1058.6" y1="132.7" x2="1068.4" y2="127.1"/>
<polyline points="1048.4,97.2 1048.4,125.6 1057.1,125.6 1057.1,127.1 1038.2,127.1 1038.2,125.6 1046.9,125.6 1046.9,97.2 "/>
<line fill="none" stroke="#000000" stroke-width="0.3568" stroke-linecap="round" stroke-linejoin="round" stroke-miterlimit="10" x1="1277.8" y1="132.3" x2="1267.9" y2="126.6"/>
<line fill="none" stroke="#000000" stroke-width="0.3568" stroke-linecap="round" stroke-linejoin="round" stroke-miterlimit="10" x1="1308" y1="132.7" x2="1298.2" y2="127.1"/>
<line fill="none" stroke="#000000" stroke-width="0.3568" stroke-linecap="round" stroke-linejoin="round" stroke-miterlimit="10" x1="1329.6" y1="132.7" x2="1339.4" y2="127.1"/>
<line fill="none" stroke="#000000" stroke-width="0.3568" stroke-linecap="round" stroke-linejoin="round" stroke-miterlimit="10" x1="1351.8" y1="132.7" x2="1342.1" y2="127.1"/>
<polyline points="1267.2,105.4 1267.2,125.1 1267.9,125.1 1267.9,126.6 1256.2,126.6 1256.2,125.1 1265.6,125.1 1265.6,105.4 "/>
<polyline points="1289.5,97.2 1289.5,125.6 1298.2,125.6 1298.2,127.1 1279.3,127.1 1279.3,125.6 1287.9,125.6 1287.9,97.2 "/>
<polyline points="1319.8,97.2 1319.8,125.6 1328.1,125.6 1328.1,127.1 1309.5,127.1 1309.5,125.6 1318.2,125.6 1318.2,97.2 "/>
<polyline points="1341.7,97.6 1341.7,125.6 1342.1,125.6 1342.1,127.1 1339.4,127.1 1339.4,125.6 1340.1,125.6 1340.1,97.6 "/>
<polyline points="1368.1,127.1 1353.8,127.1 1353.8,125.6 1368.1,125.6 "/>
<line fill="none" stroke="#000000" stroke-width="0.3568" stroke-linecap="round" stroke-linejoin="round" stroke-miterlimit="10" x1="903.6" y1="580.6" x2="898" y2="570.7"/>
<polyline points="896.6,597.7 896.6,582.5 898,582.5 898,597.7 "/>
<line fill="none" stroke="#000000" stroke-width="0.3568" stroke-linecap="round" stroke-linejoin="round" stroke-miterlimit="10" x1="903.6" y1="558.3" x2="898" y2="568.1"/>
<polyline points="868.1,568.8 896.6,568.8 896.6,568.1 898,568.1 898,570.7 896.6,570.7 896.6,570.3 868.1,570.3 "/>
<line fill="none" stroke="#000000" stroke-width="0.3568" stroke-linecap="round" stroke-linejoin="round" stroke-miterlimit="10" x1="903.6" y1="536.7" x2="898" y2="526.9"/>
<polyline points="868.2,546.9 896.6,546.9 896.6,538.2 898,538.2 898,556.7 896.6,556.7 896.6,548.4 868.2,548.4 "/>
<line fill="none" stroke="#000000" stroke-width="0.3568" stroke-linecap="round" stroke-linejoin="round" stroke-miterlimit="10" x1="903.6" y1="506.4" x2="898" y2="496.6"/>
<polyline points="868.2,516.6 896.6,516.6 896.6,508 898,508 898,526.9 896.6,526.9 896.6,518.1 868.2,518.1 "/>
<line fill="none" stroke="#000000" stroke-width="0.3568" stroke-linecap="round" stroke-linejoin="round" stroke-miterlimit="10" x1="903.6" y1="287.3" x2="898" y2="297.1"/>
<line fill="none" stroke="#000000" stroke-width="0.3568" stroke-linecap="round" stroke-linejoin="round" stroke-miterlimit="10" x1="903.6" y1="257.1" x2="898" y2="266.9"/>
<line fill="none" stroke="#000000" stroke-width="0.3568" stroke-linecap="round" stroke-linejoin="round" stroke-miterlimit="10" x1="903.6" y1="235.5" x2="898" y2="225.7"/>
<line fill="none" stroke="#000000" stroke-width="0.3568" stroke-linecap="round" stroke-linejoin="round" stroke-miterlimit="10" x1="903.6" y1="213.2" x2="898" y2="223"/>
<polyline points="868.2,275.5 896.6,275.5 896.6,266.9 898,266.9 898,285.7 896.6,285.7 896.6,277 868.2,277 "/>
<polyline points="868.2,245.4 896.6,245.4 896.6,237.1 898,237.1 898,255.6 896.6,255.6 896.6,246.9 868.2,246.9 "/>
<polyline points="868.6,223.4 896.6,223.4 896.6,223 898,223 898,225.7 896.6,225.7 896.6,224.9 868.6,224.9 "/>
<polyline points="898,195.4 898,211.7 896.6,211.7 896.6,195.4 "/>
<path d="M990.2,240.1v16.6h30.3v-16.6h-13.6v-2.3h66.5h0.4v40.3h-2.3v-19.3h-81.3v35.9h81.2v-3h1.8v9.9h-6.8V297h-78.6v-59.2h7.6
	v2.3H990.2 M1071.5,256.7v-16.6h-48.8v16.6H1071.5"/>
<line fill="none" stroke="#000000" stroke-width="0.3568" stroke-linecap="round" stroke-linejoin="round" stroke-miterlimit="10" x1="1022.7" y1="240.1" x2="1071.5" y2="256.7"/>
<line fill="none" stroke="#000000" stroke-width="0.3568" stroke-linecap="round" stroke-linejoin="round" stroke-miterlimit="10" x1="1071.5" y1="240.1" x2="1022.7" y2="256.7"/>
<line fill="none" stroke="#000000" stroke-width="0.3568" stroke-linecap="round" stroke-linejoin="round" stroke-miterlimit="10" x1="1005.3" y1="232.1" x2="995.4" y2="237.8"/>
<polyline fill="none" stroke="#000000" stroke-width="0.3568" stroke-linecap="round" stroke-linejoin="round" stroke-miterlimit="10" points="
	1361.2,395.7 1361.2,400.3 1368.1,400.3 "/>
<line fill="none" stroke="#000000" stroke-width="0.3568" stroke-linecap="round" stroke-linejoin="round" stroke-miterlimit="10" x1="1342.4" y1="408.6" x2="1368.1" y2="408.6"/>
<line fill="none" stroke="#000000" stroke-width="0.3568" stroke-linecap="round" stroke-linejoin="round" stroke-miterlimit="10" x1="1368.1" y1="408.6" x2="1368.1" y2="400.3"/>
<line fill="none" stroke="#000000" stroke-width="0.3568" stroke-linecap="round" stroke-linejoin="round" stroke-miterlimit="10" x1="1256.2" y1="376.7" x2="1263" y2="388.5"/>
<polyline fill="none" stroke="#000000" stroke-width="0.3568" stroke-linecap="round" stroke-linejoin="round" stroke-miterlimit="10" points="
	1342.4,489.8 1355.9,489.8 1355.9,480 1368.1,480 "/>
<line fill="none" stroke="#000000" stroke-width="0.3568" stroke-linecap="round" stroke-linejoin="round" stroke-miterlimit="10" x1="1342.4" y1="489.8" x2="1342.4" y2="497"/>
<rect x="1334.5" y="444.5" fill="none" stroke="#000000" stroke-width="0.3568" stroke-linecap="round" stroke-linejoin="round" stroke-miterlimit="10" width="33.7" height="2.6"/>
<line fill="none" stroke="#000000" stroke-width="0.3568" stroke-linecap="round" stroke-linejoin="round" stroke-miterlimit="10" x1="1368.1" y1="491.8" x2="1368.1" y2="480"/>
<polyline fill="none" stroke="#000000" stroke-width="0.3568" stroke-linecap="round" stroke-linejoin="round" stroke-miterlimit="10" points="
	1368.1,491.8 1361.2,491.8 1361.2,497 "/>
<line fill="none" stroke="#000000" stroke-width="0.3568" stroke-linecap="round" stroke-linejoin="round" stroke-miterlimit="10" x1="1340.1" y1="440" x2="1334.5" y2="430.1"/>
<line fill="none" stroke="#000000" stroke-width="0.3568" stroke-linecap="round" stroke-linejoin="round" stroke-miterlimit="10" x1="1340.1" y1="452.8" x2="1334.5" y2="462.6"/>
<line fill="none" stroke="#000000" stroke-width="0.3568" stroke-linecap="round" stroke-linejoin="round" stroke-miterlimit="10" x1="1376" y1="520.8" x2="1370.3" y2="510.9"/>
<polyline points="1370.3,352.3 1370.3,338.7 1263,338.7 1263,374.9 1265.3,374.9 1265.3,341 1368.1,341 1368.1,351.8 "/>
<line fill="none" stroke="#000000" stroke-width="0.3568" stroke-linecap="round" stroke-linejoin="round" stroke-miterlimit="10" x1="1351.8" y1="661.4" x2="1342.1" y2="667"/>
<polyline points="1370,667 1353.7,667 1353.7,668.6 1370,668.6 "/>
<line fill="none" stroke="#000000" stroke-width="0.3568" stroke-linecap="round" stroke-linejoin="round" stroke-miterlimit="10" x1="1329.6" y1="661.4" x2="1339.4" y2="667"/>
<polyline points="1340.1,693.4 1340.1,668.6 1339.4,668.6 1339.4,667 1342.1,667 1342.1,668.6 1341.7,668.6 1341.7,693.4 "/>
<line fill="none" stroke="#000000" stroke-width="0.3568" stroke-linecap="round" stroke-linejoin="round" stroke-miterlimit="10" x1="1308" y1="661.4" x2="1298.2" y2="667"/>
<polyline points="1318.2,693.7 1318.2,668.6 1309.5,668.6 1309.5,667 1328.1,667 1328.1,668.6 1319.8,668.6 1319.8,693.7 "/>
<line fill="none" stroke="#000000" stroke-width="0.3568" stroke-linecap="round" stroke-linejoin="round" stroke-miterlimit="10" x1="1277.8" y1="661.4" x2="1267.9" y2="667"/>
<polyline points="1289.5,693.7 1289.5,668.6 1298.2,668.6 1298.2,667 1279.3,667 1279.3,668.6 1287.9,668.6 1287.9,693.7 "/>
<polyline points="1265.6,688.2 1265.6,668.6 1256.2,668.6 1256.2,667 1267.9,667 1267.9,668.6 1267.2,668.6 1267.2,688.2 "/>
<line fill="none" stroke="#000000" stroke-width="0.3568" stroke-linecap="round" stroke-linejoin="round" stroke-miterlimit="10" x1="1058.6" y1="661.4" x2="1068.4" y2="667"/>
<line fill="none" stroke="#000000" stroke-width="0.3568" stroke-linecap="round" stroke-linejoin="round" stroke-miterlimit="10" x1="1028.4" y1="661.4" x2="1038.2" y2="667"/>
<line fill="none" stroke="#000000" stroke-width="0.3568" stroke-linecap="round" stroke-linejoin="round" stroke-miterlimit="10" x1="1006.8" y1="661.4" x2="997.1" y2="667"/>
<line fill="none" stroke="#000000" stroke-width="0.3568" stroke-linecap="round" stroke-linejoin="round" stroke-miterlimit="10" x1="984.6" y1="661.4" x2="994.4" y2="667"/>
<polyline points="1069.1,688.2 1069.1,668.6 1068.4,668.6 1068.4,667 1080.1,667 1080.1,668.6 1070.7,668.6 1070.7,688.2 "/>
<polyline points="1046.9,694.4 1046.9,668.6 1038.2,668.6 1038.2,667 1057.1,667 1057.1,668.6 1048.4,668.6 1048.4,694.4 "/>
<polyline points="1016.6,694.4 1016.6,668.6 1008.4,668.6 1008.4,667 1026.8,667 1026.8,668.6 1018.1,668.6 1018.1,694.4 "/>
<polyline points="994.7,694.1 994.7,668.6 994.4,668.6 994.4,667 997.1,667 997.1,668.6 996.3,668.6 996.3,694.1 "/>
<polyline points="966.8,667 983,667 983,668.6 966.8,668.6 "/>
<line fill="none" stroke="#000000" stroke-width="0.3568" stroke-linecap="round" stroke-linejoin="round" stroke-miterlimit="10" x1="1433.2" y1="213.2" x2="1438.9" y2="223"/>
<polyline points="1438.4,194.9 1438.4,211.2 1439.9,211.2 1439.9,194.9 "/>
<line fill="none" stroke="#000000" stroke-width="0.3568" stroke-linecap="round" stroke-linejoin="round" stroke-miterlimit="10" x1="1433.2" y1="235.5" x2="1438.9" y2="225.7"/>
<polyline points="1468.4,224.9 1440.4,224.9 1440.4,225.7 1438.9,225.7 1438.9,223 1440.4,223 1440.4,223.4 1468.4,223.4 "/>
<line fill="none" stroke="#000000" stroke-width="0.3568" stroke-linecap="round" stroke-linejoin="round" stroke-miterlimit="10" x1="1432.7" y1="257.1" x2="1438.4" y2="266.9"/>
<polyline points="1468.3,246.9 1439.9,246.9 1439.9,255.6 1438.4,255.6 1438.4,237.1 1439.9,237.1 1439.9,245.4 1468.3,245.4 "/>
<line fill="none" stroke="#000000" stroke-width="0.3568" stroke-linecap="round" stroke-linejoin="round" stroke-miterlimit="10" x1="1432.7" y1="287.3" x2="1438.4" y2="297.1"/>
<polyline points="1468.3,277 1439.9,277 1439.9,285.7 1438.4,285.7 1438.4,266.9 1439.9,266.9 1439.9,275.5 1468.3,275.5 "/>
<line fill="none" stroke="#000000" stroke-width="0.3568" stroke-linecap="round" stroke-linejoin="round" stroke-miterlimit="10" x1="1432.7" y1="506.4" x2="1438.4" y2="496.6"/>
<line fill="none" stroke="#000000" stroke-width="0.3568" stroke-linecap="round" stroke-linejoin="round" stroke-miterlimit="10" x1="1432.7" y1="536.7" x2="1438.4" y2="526.9"/>
<line fill="none" stroke="#000000" stroke-width="0.3568" stroke-linecap="round" stroke-linejoin="round" stroke-miterlimit="10" x1="1432.7" y1="558.3" x2="1438.4" y2="568.1"/>
<line fill="none" stroke="#000000" stroke-width="0.3568" stroke-linecap="round" stroke-linejoin="round" stroke-miterlimit="10" x1="1432.7" y1="580.6" x2="1438.4" y2="570.7"/>
<polyline points="1468.3,518.1 1439.9,518.1 1439.9,526.9 1438.4,526.9 1438.4,508 1439.9,508 1439.9,516.6 1468.3,516.6 "/>
<polyline points="1468.3,548.4 1439.9,548.4 1439.9,556.7 1438.4,556.7 1438.4,538.2 1439.9,538.2 1439.9,546.9 1468.3,546.9 "/>
<polyline points="1467.9,570.3 1439.9,570.3 1439.9,570.7 1438.4,570.7 1438.4,568.1 1439.9,568.1 1439.9,568.8 1467.9,568.8 "/>
<polyline points="1438.4,598.2 1438.4,582 1439.9,582 1439.9,598.2 "/>
<line fill="none" stroke="#000000" stroke-width="0.3568" stroke-linecap="round" stroke-linejoin="round" stroke-miterlimit="10" x1="904.7" y1="480.4" x2="898" y2="492"/>
<polyline points="869.8,494.3 896.6,494.3 896.6,492 898,492 898,496.6 896.6,496.6 896.6,495.8 869.8,495.8 "/>
<line fill="none" stroke="#000000" stroke-width="0.3568" stroke-linecap="round" stroke-linejoin="round" stroke-miterlimit="10" x1="904.7" y1="306.8" x2="898" y2="318.7"/>
<polyline points="870.5,299.3 896.6,299.3 896.6,305 898,305 898,297.1 896.6,297.1 896.6,297.8 870.5,297.8 "/>
<polyline points="1465.6,299.3 1439.9,299.3 1439.9,304.3 1438.4,304.3 1438.4,297.1 1439.9,297.1 1439.9,297.8 1465.6,297.8 "/>
<line fill="none" stroke="#000000" stroke-width="0.3568" stroke-linecap="round" stroke-linejoin="round" stroke-miterlimit="10" x1="1431.6" y1="306.1" x2="1438.4" y2="317.9"/>
<line fill="none" stroke="#000000" stroke-width="0.3568" stroke-linecap="round" stroke-linejoin="round" stroke-miterlimit="10" x1="1431.6" y1="479.6" x2="1438.4" y2="491.3"/>
<line fill="none" stroke="#000000" stroke-width="0.3568" stroke-linecap="round" stroke-linejoin="round" stroke-miterlimit="10" x1="1431.6" y1="448.2" x2="1438.4" y2="460"/>
<polyline points="1468.3,473.1 1439.9,473.1 1439.9,477.7 1438.4,477.7 1438.4,460 1439.9,460 1439.9,471.7 1468.3,471.7 "/>
<polyline points="1468.3,320.6 1439.9,320.6 1439.9,317.9 1438.4,317.9 1438.4,333.8 1439.9,333.8 1439.9,322 1468.3,322 "/>
<polyline points="1465.6,495.8 1439.9,495.8 1439.9,496.6 1438.4,496.6 1438.4,491.3 1439.9,491.3 1439.9,494.1 1439.9,494.3 
	1465.6,494.3 "/>
<polyline points="1365.1,535.1 1365.2,535.2 1365.2,537.5 1370.3,537.5 1370.3,522.3 1368.1,522.3 1368.1,535.2 1365.2,535.2 "/>
<line fill="none" stroke="#000000" stroke-width="0.3568" stroke-linecap="round" stroke-linejoin="round" stroke-miterlimit="10" x1="1353.5" y1="528.4" x2="1365.1" y2="535.1"/>
<path fill="none" stroke="#000000" stroke-width="0.3568" stroke-linecap="round" stroke-linejoin="round" stroke-miterlimit="10" d="
	M1331.2,482.9"/>
<path fill="none" stroke="#000000" stroke-width="0.3568" stroke-linecap="round" stroke-linejoin="round" stroke-miterlimit="10" d="
	M1313.6,482.9"/>
<path fill="none" stroke="#000000" stroke-width="0.3568" stroke-linecap="round" stroke-linejoin="round" stroke-miterlimit="10" d="
	M1277.2,482.9"/>
<path fill="none" stroke="#000000" stroke-width="0.3568" stroke-linecap="round" stroke-linejoin="round" stroke-miterlimit="10" d="
	M1294.9,416.1"/>
<path fill="none" stroke="#000000" stroke-width="0.3568" stroke-linecap="round" stroke-linejoin="round" stroke-miterlimit="10" d="
	M1277.2,416.1"/>
<path fill="none" stroke="#000000" stroke-width="0.3568" stroke-linecap="round" stroke-linejoin="round" stroke-miterlimit="10" d="
	M1331.2,416.1"/>
<path fill="none" stroke="#000000" stroke-width="0.3568" stroke-linecap="round" stroke-linejoin="round" stroke-miterlimit="10" d="
	M1313.6,416.1"/>
<line fill="none" stroke="#000000" stroke-width="0.3568" stroke-linecap="round" stroke-linejoin="round" stroke-miterlimit="10" x1="1376" y1="361.8" x2="1370.3" y2="352.1"/>
<line fill="none" stroke="#000000" stroke-width="0.3568" stroke-linecap="round" stroke-linejoin="round" stroke-miterlimit="10" x1="1370.3" y1="352.1" x2="1368.1" y2="352.1"/>
<polyline points="1438.4,491.9 1402.1,491.9 1402.1,492.3 1402.1,494.4 1402.1,493.8 1438.4,493.8 "/>
<line fill="none" stroke="#000000" stroke-width="0.3568" stroke-linecap="round" stroke-linejoin="round" stroke-miterlimit="10" x1="1390.3" y1="485.5" x2="1402.1" y2="492.3"/>
<polyline points="1370.3,494.3 1388.4,494.3 1388.4,494.4 1388.4,492.8 1388.4,492.4 1370.3,492.4 "/>
<rect x="1348.9" y="523.2" width="19.3" height="1.7"/>
<path fill="none" stroke="#000000" stroke-width="0.3568" stroke-linecap="round" stroke-linejoin="round" stroke-miterlimit="10" d="
	M1367.2,533.7"/>
<path fill="none" stroke="#000000" stroke-width="0.3568" stroke-linecap="round" stroke-linejoin="round" stroke-miterlimit="10" d="
	M1349.7,533.7"/>
<g id="Layer_4">
	<path d="M1446.1,470.3V321.6h23.2V193.7h-99.9V96.3h-106V124h-18.5v-4.2h-153v4.2h-19.5V96.3H965.5v96.2H867v129.1h31.7v26.1h-5.2
		v100.2h3.6V471h-30.2v127.1h98.5v97h107.4v-20.6l190.5-0.1V695h107.2v-96.9h98.7V470.3L1446.1,470.3L1446.1,470.3z M1465.3,594.2
		h-98.6v96.9l-99.3,0.1l0.1-20.8l-198.4-0.1V691l-99.3,0.1l-0.1-97.1h-98.7l0.1-119.1h30v-31.1h-3.6v-92.2h5.3v-34h-31.7v-121h98.6
		v-96.2h98.8v27.7h27.5v-4.2l145.1-0.1v4.2h26.5v-27.6h98v97.5h99.7v120h-23.2v156.6h23.2v119.8H1465.3L1465.3,594.2z"/>
</g>
<g>
	<g>
		<path d="M1276.6,418.4v-10.7l3.4,3.4c0.4,0.4,0.9,0.4,1.3,0s0.4-0.9,0-1.3l-4.6-4.6l-0.9-0.9l-0.9,0.9l-4.6,4.5
			c-0.1,0.1-0.2,0.4-0.2,0.6s0.1,0.5,0.2,0.6c0.4,0.4,0.9,0.4,1.3,0l3.3-3.4v10.7c0,0.5,0.4,0.9,0.9,0.9
			C1276.2,419.3,1276.6,418.9,1276.6,418.4z"/>
		<path d="M1289.3,405.1v10.7l-3.4-3.4c-0.4-0.4-0.9-0.4-1.3,0s-0.4,0.9,0,1.3l4.6,4.6l0.9,0.9l0.9-0.9l4.6-4.6
			c0.1-0.1,0.2-0.4,0.2-0.6c0-0.2-0.1-0.5-0.2-0.6c-0.4-0.4-0.9-0.4-1.3,0l-3.3,3.4v-10.7c0-0.5-0.4-0.9-0.9-0.9
			C1289.6,404.2,1289.3,404.6,1289.3,405.1z"/>
	</g>
	<g>
		<path d="M1314.3,418.4v-10.7l3.4,3.4c0.4,0.4,0.9,0.4,1.3,0c0.4-0.4,0.4-0.9,0-1.3l-4.6-4.6l-0.9-0.9l-0.9,0.9l-4.6,4.6
			c-0.1,0.1-0.2,0.4-0.2,0.6s0.1,0.5,0.2,0.6c0.4,0.4,0.9,0.4,1.3,0l3.3-3.4v10.7c0,0.5,0.4,0.9,0.9,0.9
			C1314,419.3,1314.3,418.9,1314.3,418.4z"/>
		<path d="M1327,405.1v10.7l-3.4-3.4c-0.4-0.4-0.9-0.4-1.3,0s-0.4,0.9,0,1.3l4.6,4.6l0.9,0.9l0.9-0.9l4.6-4.6
			c0.1-0.1,0.2-0.4,0.2-0.6c0-0.2-0.1-0.5-0.2-0.6c-0.4-0.4-0.9-0.4-1.3,0l-3.3,3.4v-10.7c0-0.5-0.4-0.9-0.9-0.9
			C1327.4,404.2,1327,404.6,1327,405.1z"/>
	</g>
	<g>
		<path d="M1276.6,489.8v-10.7l3.4,3.4c0.4,0.4,0.9,0.4,1.3,0s0.4-0.9,0-1.3l-4.6-4.6l-0.9-0.9l-0.9,0.9l-4.6,4.6
			c-0.1,0.1-0.2,0.4-0.2,0.6c0,0.2,0.1,0.5,0.2,0.6c0.4,0.4,0.9,0.4,1.3,0l3.3-3.4v10.7c0,0.5,0.4,0.9,0.9,0.9
			C1276.2,490.7,1276.6,490.3,1276.6,489.8z"/>
		<path d="M1289.3,476.5v10.7l-3.4-3.4c-0.4-0.4-0.9-0.4-1.3,0s-0.4,0.9,0,1.3l4.6,4.6l0.9,0.9l0.9-0.9l4.6-4.6
			c0.1-0.1,0.2-0.4,0.2-0.6c0-0.2-0.1-0.5-0.2-0.6c-0.4-0.4-0.9-0.4-1.3,0l-3.3,3.4v-10.7c0-0.5-0.4-0.9-0.9-0.9
			C1289.6,475.6,1289.3,476,1289.3,476.5z"/>
	</g>
	<g>
		<path d="M1314.3,489.8v-10.7l3.4,3.4c0.4,0.4,0.9,0.4,1.3,0c0.4-0.4,0.4-0.9,0-1.3l-4.6-4.6l-0.9-0.9l-0.9,0.9l-4.6,4.6
			c-0.1,0.1-0.2,0.4-0.2,0.6c0,0.2,0.1,0.5,0.2,0.6c0.4,0.4,0.9,0.4,1.3,0l3.3-3.4v10.7c0,0.5,0.4,0.9,0.9,0.9
			C1314,490.7,1314.3,490.3,1314.3,489.8z"/>
		<path d="M1327,476.5v10.7l-3.4-3.4c-0.4-0.4-0.9-0.4-1.3,0s-0.4,0.9,0,1.3l4.6,4.6l0.9,0.9l0.9-0.9l4.6-4.6
			c0.1-0.1,0.2-0.4,0.2-0.6c0-0.2-0.1-0.5-0.2-0.6c-0.4-0.4-0.9-0.4-1.3,0l-3.3,3.4v-10.7c0-0.5-0.4-0.9-0.9-0.9
			C1327.4,475.6,1327,476,1327,476.5z"/>
	</g>
</g>
</svg>
