<?xml version="1.0" encoding="utf-8"?>
<!-- Generator: Adobe Illustrator 17.1.0, SVG Export Plug-In . SVG Version: 6.00 Build 0)  -->
<!DOCTYPE svg PUBLIC "-//W3C//DTD SVG 1.1//EN" "http://www.w3.org/Graphics/SVG/1.1/DTD/svg11.dtd">
<svg version="1.1" id="Layer_1" xmlns="http://www.w3.org/2000/svg" xmlns:xlink="http://www.w3.org/1999/xlink" x="0px" y="0px"
	 viewBox="0 0 453.2 150.2" enable-background="new 0 0 453.2 150.2" xml:space="preserve">
<g>
	<g>
		<path d="M28,67.9V56.2h2.9c1.2,0,2.1,0.3,2.8,0.9c0.7,0.6,1,1.4,1,2.4c0,0.7-0.2,1.3-0.5,1.8c-0.3,0.5-0.8,0.9-1.5,1.1
			c0.4,0.2,0.7,0.6,1.1,1c0.4,0.4,0.9,1.2,1.5,2.2c0.4,0.7,0.7,1.2,1,1.5l0.6,0.8h-2l-0.5-0.8c0,0-0.1-0.1-0.1-0.1l-0.3-0.5
			l-0.5-0.9L33,64.8c-0.3-0.5-0.7-0.9-1-1.1c-0.3-0.3-0.5-0.5-0.8-0.6c-0.2-0.1-0.6-0.2-1.2-0.2h-0.4v5.1H28z M30.1,57.6h-0.5v3.7
			h0.6c0.8,0,1.4-0.1,1.7-0.2c0.3-0.1,0.6-0.4,0.7-0.7c0.2-0.3,0.3-0.6,0.3-1c0-0.4-0.1-0.7-0.3-1c-0.2-0.3-0.5-0.5-0.8-0.6
			C31.5,57.7,31,57.6,30.1,57.6z"/>
		<path d="M44.6,64.2h-5.4c0,0.7,0.3,1.3,0.7,1.8c0.5,0.4,1,0.7,1.8,0.7c1,0,1.9-0.3,2.8-0.9v1.5c-0.5,0.3-0.9,0.5-1.4,0.7
			c-0.5,0.1-1,0.2-1.6,0.2c-0.9,0-1.5-0.2-2.1-0.5c-0.5-0.4-0.9-0.8-1.3-1.4c-0.3-0.6-0.5-1.3-0.5-2.1c0-1.2,0.3-2.1,1-2.9
			c0.7-0.7,1.5-1.1,2.6-1.1c1,0,1.8,0.4,2.4,1.1c0.6,0.7,0.9,1.7,0.9,2.9V64.2z M39.2,63.3h3.9c0-0.6-0.2-1.1-0.5-1.4
			c-0.3-0.3-0.8-0.5-1.3-0.5s-1,0.2-1.3,0.5C39.6,62.2,39.4,62.7,39.2,63.3z"/>
		<path d="M45.9,67.3v-1.6c0.4,0.3,0.9,0.5,1.3,0.7c0.5,0.2,0.8,0.3,1.1,0.3c0.3,0,0.6-0.1,0.8-0.2c0.2-0.2,0.3-0.3,0.3-0.6
			c0-0.2-0.1-0.4-0.2-0.6c-0.1-0.1-0.5-0.4-1-0.6c-1-0.5-1.6-1-1.9-1.4C46.1,62.9,46,62.5,46,62c0-0.6,0.2-1.1,0.7-1.5
			c0.5-0.4,1.1-0.6,1.8-0.6c0.8,0,1.5,0.2,2.3,0.6v1.5c-0.9-0.5-1.6-0.8-2.2-0.8c-0.3,0-0.5,0.1-0.7,0.2c-0.2,0.1-0.3,0.3-0.3,0.5
			c0,0.2,0.1,0.4,0.2,0.5c0.2,0.2,0.5,0.4,0.9,0.6l0.5,0.3c1.3,0.7,1.9,1.5,1.9,2.4c0,0.6-0.2,1.1-0.7,1.6c-0.5,0.4-1.1,0.6-1.9,0.6
			c-0.5,0-0.9,0-1.2-0.1S46.5,67.6,45.9,67.3z"/>
		<path d="M51.9,61.4l2.9-2.8v1.6h2.4v1.4h-2.4v3.8c0,0.9,0.4,1.3,1.1,1.3c0.5,0,1.1-0.2,1.7-0.5v1.4C57,67.9,56.3,68,55.7,68
			c-0.7,0-1.3-0.2-1.7-0.6c-0.1-0.1-0.3-0.3-0.4-0.4c-0.1-0.2-0.2-0.4-0.2-0.6c-0.1-0.2-0.1-0.7-0.1-1.4v-3.4h-1.3V61.4z"/>
		<path d="M60.3,60.2V62l0.1-0.1c0.7-1.2,1.5-1.8,2.2-1.8c0.6,0,1.2,0.3,1.8,0.9l-0.8,1.3c-0.5-0.5-1-0.8-1.5-0.8
			c-0.5,0-0.9,0.2-1.3,0.7c-0.4,0.5-0.5,1-0.5,1.7v4h-1.5v-7.7H60.3z"/>
		<path d="M68.7,60.2c1.2,0,2.1,0.4,2.9,1.1s1.2,1.7,1.2,2.9c0,1.1-0.4,2-1.2,2.8c-0.8,0.7-1.8,1.1-3,1.1c-1.2,0-2.1-0.4-2.9-1.1
			c-0.8-0.7-1.2-1.7-1.2-2.8c0-1.1,0.4-2.1,1.2-2.8C66.6,60.5,67.5,60.2,68.7,60.2z M68.6,61.5c-0.7,0-1.3,0.2-1.8,0.7
			c-0.5,0.5-0.7,1.1-0.7,1.8c0,0.7,0.2,1.3,0.7,1.8c0.5,0.5,1.1,0.7,1.9,0.7c0.7,0,1.4-0.2,1.8-0.7c0.5-0.5,0.7-1.1,0.7-1.8
			c0-0.7-0.2-1.3-0.7-1.8C70,61.8,69.4,61.5,68.6,61.5z"/>
		<path d="M78.2,60.2c1.2,0,2.1,0.4,2.9,1.1s1.2,1.7,1.2,2.9c0,1.1-0.4,2-1.2,2.8c-0.8,0.7-1.8,1.1-3,1.1c-1.2,0-2.1-0.4-2.9-1.1
			c-0.8-0.7-1.2-1.7-1.2-2.8c0-1.1,0.4-2.1,1.2-2.8C76,60.5,77,60.2,78.2,60.2z M78.1,61.5c-0.7,0-1.3,0.2-1.8,0.7
			c-0.5,0.5-0.7,1.1-0.7,1.8c0,0.7,0.2,1.3,0.7,1.8c0.5,0.5,1.1,0.7,1.9,0.7c0.7,0,1.4-0.2,1.8-0.7c0.5-0.5,0.7-1.1,0.7-1.8
			c0-0.7-0.2-1.3-0.7-1.8C79.5,61.8,78.9,61.5,78.1,61.5z"/>
		<path d="M90.3,62.3v5.6h-1.5v-4.3c0-0.9-0.1-1.5-0.3-1.8c-0.2-0.3-0.6-0.5-1.2-0.5c-0.3,0-0.6,0.1-0.9,0.2
			c-0.3,0.1-0.6,0.4-0.9,0.8v5.6H84v-7.7h1.5v1c0.8-0.8,1.5-1.2,2.3-1.2c1,0,1.7,0.5,2.3,1.4c0.8-0.9,1.7-1.4,2.6-1.4
			c0.7,0,1.4,0.3,1.8,0.8s0.7,1.4,0.7,2.5v4.6h-1.5v-4.6c0-0.6-0.1-1.1-0.4-1.5s-0.6-0.5-1.1-0.5C91.5,61.3,90.9,61.7,90.3,62.3z"/>
		<path d="M96.9,67.3v-1.6c0.4,0.3,0.9,0.5,1.3,0.7c0.5,0.2,0.8,0.3,1.1,0.3c0.3,0,0.6-0.1,0.8-0.2c0.2-0.2,0.3-0.3,0.3-0.6
			c0-0.2-0.1-0.4-0.2-0.6c-0.1-0.1-0.5-0.4-1-0.6c-1-0.5-1.6-1-1.9-1.4c-0.3-0.4-0.5-0.8-0.5-1.3c0-0.6,0.2-1.1,0.7-1.5
			c0.5-0.4,1.1-0.6,1.8-0.6c0.8,0,1.5,0.2,2.3,0.6v1.5c-0.9-0.5-1.6-0.8-2.2-0.8c-0.3,0-0.5,0.1-0.7,0.2c-0.2,0.1-0.3,0.3-0.3,0.5
			c0,0.2,0.1,0.4,0.2,0.5c0.2,0.2,0.5,0.4,0.9,0.6l0.5,0.3c1.3,0.7,1.9,1.5,1.9,2.4c0,0.6-0.2,1.1-0.7,1.6c-0.5,0.4-1.1,0.6-1.9,0.6
			c-0.5,0-0.9,0-1.2-0.1S97.4,67.6,96.9,67.3z"/>
		<path d="M103.6,69.9v-0.3c0.3-0.2,0.4-0.5,0.5-0.7s0.2-0.6,0.2-1c-0.6-0.2-0.9-0.5-0.9-1.1c0-0.3,0.1-0.6,0.3-0.8s0.4-0.3,0.7-0.3
			c0.3,0,0.6,0.2,0.8,0.5c0.2,0.3,0.3,0.7,0.3,1.2c0,0.6-0.2,1.2-0.5,1.6C104.7,69.4,104.3,69.7,103.6,69.9z"/>
		<path d="M110.9,56.2h6.6v1.5h-5v3.6h4.8v1.5h-4.8v3.6h5.1v1.5h-6.8V56.2z"/>
		<path d="M119.3,56.2h1.5v11.7h-1.5V56.2z"/>
		<path d="M129.6,64.2h-5.4c0,0.7,0.3,1.3,0.7,1.8c0.5,0.4,1,0.7,1.8,0.7c1,0,1.9-0.3,2.8-0.9v1.5c-0.5,0.3-0.9,0.5-1.4,0.7
			c-0.5,0.1-1,0.2-1.6,0.2c-0.9,0-1.5-0.2-2.1-0.5c-0.5-0.4-0.9-0.8-1.3-1.4c-0.3-0.6-0.5-1.3-0.5-2.1c0-1.2,0.3-2.1,1-2.9
			c0.7-0.7,1.5-1.1,2.6-1.1c1,0,1.8,0.4,2.4,1.1c0.6,0.7,0.9,1.7,0.9,2.9V64.2z M124.2,63.3h3.9c0-0.6-0.2-1.1-0.5-1.4
			c-0.3-0.3-0.8-0.5-1.3-0.5s-1,0.2-1.3,0.5C124.6,62.2,124.3,62.7,124.2,63.3z"/>
		<path d="M135.7,60.2h1.7L134,68h-0.5l-3.5-7.8h1.7l2.1,4.7L135.7,60.2z"/>
		<path d="M143.4,63.3v3.3c0,0.3,0.1,0.4,0.3,0.4c0.2,0,0.5-0.1,0.9-0.4v0.9c-0.3,0.2-0.6,0.4-0.8,0.5c-0.2,0.1-0.4,0.1-0.7,0.1
			c-0.7,0-1-0.3-1.2-0.8c-0.6,0.5-1.3,0.8-2.1,0.8c-0.5,0-1-0.2-1.3-0.5c-0.4-0.4-0.5-0.8-0.5-1.3c0-0.5,0.2-0.9,0.5-1.3
			c0.3-0.4,0.8-0.7,1.5-0.9l2-0.7v-0.4c0-0.9-0.5-1.4-1.4-1.4c-0.8,0-1.6,0.4-2.4,1.3v-1.7c0.6-0.7,1.4-1,2.6-1c0.8,0,1.5,0.2,2,0.7
			c0.2,0.1,0.3,0.3,0.5,0.6c0.1,0.2,0.2,0.5,0.3,0.7C143.4,62.2,143.4,62.6,143.4,63.3z M141.9,66.4v-2.3l-1,0.4
			c-0.5,0.2-0.9,0.4-1.1,0.6c-0.2,0.2-0.3,0.5-0.3,0.8c0,0.3,0.1,0.6,0.3,0.8s0.5,0.3,0.8,0.3C141,67,141.5,66.8,141.9,66.4z"/>
		<path d="M144.8,61.4l2.9-2.8v1.6h2.4v1.4h-2.4v3.8c0,0.9,0.4,1.3,1.1,1.3c0.5,0,1.1-0.2,1.7-0.5v1.4c-0.6,0.3-1.2,0.5-1.9,0.5
			c-0.7,0-1.3-0.2-1.7-0.6c-0.1-0.1-0.3-0.3-0.4-0.4c-0.1-0.2-0.2-0.4-0.2-0.6c-0.1-0.2-0.1-0.7-0.1-1.4v-3.4h-1.3V61.4z"/>
		<path d="M155.3,60.2c1.2,0,2.1,0.4,2.9,1.1s1.2,1.7,1.2,2.9c0,1.1-0.4,2-1.2,2.8c-0.8,0.7-1.8,1.1-3,1.1c-1.2,0-2.1-0.4-2.9-1.1
			c-0.8-0.7-1.2-1.7-1.2-2.8c0-1.1,0.4-2.1,1.2-2.8C153.1,60.5,154.1,60.2,155.3,60.2z M155.2,61.5c-0.7,0-1.3,0.2-1.8,0.7
			c-0.5,0.5-0.7,1.1-0.7,1.8c0,0.7,0.2,1.3,0.7,1.8c0.5,0.5,1.1,0.7,1.9,0.7c0.7,0,1.4-0.2,1.8-0.7c0.5-0.5,0.7-1.1,0.7-1.8
			c0-0.7-0.2-1.3-0.7-1.8C156.6,61.8,155.9,61.5,155.2,61.5z"/>
		<path d="M162.7,60.2V62l0.1-0.1c0.7-1.2,1.5-1.8,2.2-1.8c0.6,0,1.2,0.3,1.8,0.9l-0.8,1.3c-0.5-0.5-1-0.8-1.5-0.8
			c-0.5,0-0.9,0.2-1.3,0.7c-0.4,0.5-0.5,1-0.5,1.7v4h-1.5v-7.7H162.7z"/>
		<path d="M167.5,67.3v-1.6c0.4,0.3,0.9,0.5,1.3,0.7c0.5,0.2,0.8,0.3,1.1,0.3c0.3,0,0.6-0.1,0.8-0.2c0.2-0.2,0.3-0.3,0.3-0.6
			c0-0.2-0.1-0.4-0.2-0.6c-0.1-0.1-0.5-0.4-1-0.6c-1-0.5-1.6-1-1.9-1.4c-0.3-0.4-0.5-0.8-0.5-1.3c0-0.6,0.2-1.1,0.7-1.5
			c0.5-0.4,1.1-0.6,1.8-0.6c0.8,0,1.5,0.2,2.3,0.6v1.5c-0.9-0.5-1.6-0.8-2.2-0.8c-0.3,0-0.5,0.1-0.7,0.2c-0.2,0.1-0.3,0.3-0.3,0.5
			c0,0.2,0.1,0.4,0.2,0.5c0.2,0.2,0.5,0.4,0.9,0.6l0.5,0.3c1.3,0.7,1.9,1.5,1.9,2.4c0,0.6-0.2,1.1-0.7,1.6c-0.5,0.4-1.1,0.6-1.9,0.6
			c-0.5,0-0.9,0-1.2-0.1S168,67.6,167.5,67.3z"/>
		<path d="M186.7,67.9l-1.4-1.6c-0.1,0.1-0.3,0.3-0.6,0.5l0,0c-0.4,0.3-0.9,0.6-1.5,0.8c-0.6,0.2-1.1,0.4-1.6,0.4
			c-0.8,0-1.5-0.3-2.1-0.8s-0.8-1.2-0.8-1.9c0-0.5,0.1-1,0.4-1.5c0.3-0.4,0.7-0.9,1.4-1.4l0,0c0.4-0.3,0.7-0.5,1-0.6
			c-0.9-0.9-1.3-1.9-1.3-2.7c0-0.8,0.3-1.4,0.8-1.9c0.5-0.5,1.2-0.7,2.1-0.7c0.8,0,1.5,0.2,2.1,0.7s0.8,1.1,0.8,1.9c0,1-0.7,2-2.1,3
			l-0.1,0.1l1.7,1.9c0.5-0.5,0.9-1.2,1.3-1.9h1.7c-0.4,1-1,2.1-1.9,3.1l2.4,2.7H186.7z M183.9,65.5l0.4-0.3l-1.9-2.2l-0.7,0.5
			c-0.9,0.6-1.3,1.2-1.3,1.8c0,0.3,0.1,0.6,0.4,0.8c0.3,0.2,0.6,0.4,1,0.4c0.3,0,0.7-0.1,1.1-0.3C183.2,66,183.6,65.8,183.9,65.5z
			 M182.8,61l0.6-0.5c0.6-0.4,0.9-0.9,0.9-1.5c0-0.3-0.1-0.6-0.4-0.9c-0.2-0.2-0.6-0.3-0.9-0.3c-0.4,0-0.7,0.1-0.9,0.3
			c-0.2,0.2-0.4,0.5-0.4,0.8c0,0.3,0.1,0.6,0.3,1C182.2,60.3,182.5,60.7,182.8,61z"/>
		<path d="M197.9,63l-1.3-0.8c-0.8-0.5-1.4-1-1.7-1.4c-0.3-0.5-0.5-1-0.5-1.6c0-0.9,0.3-1.7,1-2.2c0.6-0.6,1.5-0.9,2.5-0.9
			c1,0,1.9,0.3,2.7,0.8v1.9c-0.8-0.8-1.8-1.2-2.7-1.2c-0.5,0-1,0.1-1.4,0.4c-0.4,0.3-0.5,0.6-0.5,1c0,0.4,0.1,0.7,0.4,1
			s0.7,0.6,1.3,1l1.3,0.8c1.4,0.9,2.1,1.9,2.1,3.3c0,0.9-0.3,1.7-0.9,2.3c-0.6,0.6-1.4,0.9-2.5,0.9c-1.2,0-2.2-0.4-3.2-1.1v-2.1
			c0.9,1.1,2,1.7,3.1,1.7c0.5,0,1-0.1,1.3-0.4c0.3-0.3,0.5-0.7,0.5-1.1C199.4,64.3,198.9,63.6,197.9,63z"/>
		<path d="M201.6,61.4l2.9-2.8v1.6h2.4v1.4h-2.4v3.8c0,0.9,0.4,1.3,1.1,1.3c0.5,0,1.1-0.2,1.7-0.5v1.4c-0.6,0.3-1.2,0.5-1.9,0.5
			c-0.7,0-1.3-0.2-1.7-0.6c-0.1-0.1-0.3-0.3-0.4-0.4c-0.1-0.2-0.2-0.4-0.2-0.6c-0.1-0.2-0.1-0.7-0.1-1.4v-3.4h-1.3V61.4z"/>
		<path d="M213.2,63.3v3.3c0,0.3,0.1,0.4,0.3,0.4c0.2,0,0.5-0.1,0.9-0.4v0.9c-0.3,0.2-0.6,0.4-0.8,0.5c-0.2,0.1-0.4,0.1-0.7,0.1
			c-0.7,0-1-0.3-1.2-0.8c-0.6,0.5-1.3,0.8-2.1,0.8c-0.5,0-1-0.2-1.3-0.5c-0.4-0.4-0.5-0.8-0.5-1.3c0-0.5,0.2-0.9,0.5-1.3
			c0.3-0.4,0.8-0.7,1.5-0.9l2-0.7v-0.4c0-0.9-0.5-1.4-1.4-1.4c-0.8,0-1.6,0.4-2.4,1.3v-1.7c0.6-0.7,1.4-1,2.6-1c0.8,0,1.5,0.2,2,0.7
			c0.2,0.1,0.3,0.3,0.5,0.6c0.1,0.2,0.2,0.5,0.3,0.7C213.2,62.2,213.2,62.6,213.2,63.3z M211.7,66.4v-2.3l-1,0.4
			c-0.5,0.2-0.9,0.4-1.1,0.6c-0.2,0.2-0.3,0.5-0.3,0.8c0,0.3,0.1,0.6,0.3,0.8s0.5,0.3,0.8,0.3C210.9,67,211.3,66.8,211.7,66.4z"/>
		<path d="M216.5,56.9c0.3,0,0.5,0.1,0.6,0.3c0.2,0.2,0.3,0.4,0.3,0.6c0,0.2-0.1,0.5-0.3,0.6c-0.2,0.2-0.4,0.3-0.6,0.3
			c-0.2,0-0.4-0.1-0.6-0.3c-0.2-0.2-0.3-0.4-0.3-0.6c0-0.2,0.1-0.4,0.3-0.6C216.1,57,216.3,56.9,216.5,56.9z M215.7,60.2h1.5v7.7
			h-1.5V60.2z"/>
		<path d="M221.1,60.2V62l0.1-0.1c0.7-1.2,1.5-1.8,2.2-1.8c0.6,0,1.2,0.3,1.8,0.9l-0.8,1.3c-0.5-0.5-1-0.8-1.5-0.8
			c-0.5,0-0.9,0.2-1.3,0.7c-0.4,0.5-0.5,1-0.5,1.7v4h-1.5v-7.7H221.1z"/>
		<path d="M225.9,67.3v-1.6c0.4,0.3,0.9,0.5,1.3,0.7c0.5,0.2,0.8,0.3,1.1,0.3c0.3,0,0.6-0.1,0.8-0.2c0.2-0.2,0.3-0.3,0.3-0.6
			c0-0.2-0.1-0.4-0.2-0.6c-0.1-0.1-0.5-0.4-1-0.6c-1-0.5-1.6-1-1.9-1.4c-0.3-0.4-0.5-0.8-0.5-1.3c0-0.6,0.2-1.1,0.7-1.5
			c0.5-0.4,1.1-0.6,1.8-0.6c0.8,0,1.5,0.2,2.3,0.6v1.5c-0.9-0.5-1.6-0.8-2.2-0.8c-0.3,0-0.5,0.1-0.7,0.2c-0.2,0.1-0.3,0.3-0.3,0.5
			c0,0.2,0.1,0.4,0.2,0.5c0.2,0.2,0.5,0.4,0.9,0.6l0.5,0.3c1.3,0.7,1.9,1.5,1.9,2.4c0,0.6-0.2,1.1-0.7,1.6c-0.5,0.4-1.1,0.6-1.9,0.6
			c-0.5,0-0.9,0-1.2-0.1S226.4,67.6,225.9,67.3z"/>
	</g>
	<g>
		<path d="M34.2,109.8h3.9v5c-1.4,0.6-2.9,0.9-4.3,0.9c-1.9,0-3.5-0.6-4.6-1.7c-1.2-1.1-1.7-2.5-1.7-4.2c0-1.8,0.6-3.2,1.8-4.4
			c1.2-1.2,2.7-1.7,4.5-1.7c0.7,0,1.3,0.1,1.9,0.2c0.6,0.1,1.3,0.4,2.2,0.8v1.7c-1.4-0.8-2.8-1.2-4.2-1.2c-1.3,0-2.4,0.4-3.2,1.3
			c-0.9,0.9-1.3,1.9-1.3,3.2c0,1.3,0.4,2.4,1.3,3.3c0.9,0.8,2,1.3,3.4,1.3c0.7,0,1.5-0.2,2.4-0.5l0.2,0v-2.4h-2.3V109.8z"/>
		<path d="M42,107.9v1.8l0.1-0.1c0.7-1.2,1.5-1.8,2.2-1.8c0.6,0,1.2,0.3,1.8,0.9l-0.8,1.3c-0.5-0.5-1-0.8-1.5-0.8
			c-0.5,0-0.9,0.2-1.3,0.7c-0.4,0.5-0.5,1-0.5,1.7v4h-1.5v-7.7H42z"/>
		<path d="M52.1,110.9v3.3c0,0.3,0.1,0.4,0.3,0.4c0.2,0,0.5-0.1,0.9-0.4v0.9c-0.3,0.2-0.6,0.4-0.8,0.5c-0.2,0.1-0.4,0.1-0.7,0.1
			c-0.7,0-1-0.3-1.2-0.8c-0.6,0.5-1.3,0.8-2.1,0.8c-0.5,0-1-0.2-1.3-0.5c-0.4-0.4-0.5-0.8-0.5-1.3c0-0.5,0.2-0.9,0.5-1.3
			c0.3-0.4,0.8-0.7,1.5-0.9l2-0.7v-0.4c0-0.9-0.5-1.4-1.4-1.4c-0.8,0-1.6,0.4-2.4,1.3v-1.7c0.6-0.7,1.4-1,2.6-1c0.8,0,1.5,0.2,2,0.7
			c0.2,0.1,0.3,0.3,0.5,0.6c0.1,0.2,0.2,0.5,0.3,0.7C52,109.9,52.1,110.3,52.1,110.9z M50.6,114.1v-2.3l-1,0.4
			c-0.5,0.2-0.9,0.4-1.1,0.6c-0.2,0.2-0.3,0.5-0.3,0.8c0,0.3,0.1,0.6,0.3,0.8s0.5,0.3,0.8,0.3C49.7,114.7,50.1,114.5,50.6,114.1z"/>
		<path d="M59.7,103.9h1.5v11.7H58c-1.1,0-2.1-0.4-2.7-1.1c-0.7-0.7-1-1.7-1-2.9c0-1.1,0.4-2.1,1.1-2.8s1.6-1.1,2.7-1.1
			c0.5,0,1.1,0.1,1.7,0.3V103.9z M59.7,114.3v-4.9c-0.5-0.2-1-0.4-1.4-0.4c-0.8,0-1.4,0.2-1.8,0.7c-0.5,0.5-0.7,1.2-0.7,2
			c0,0.8,0.2,1.4,0.6,1.8c0.2,0.3,0.5,0.4,0.7,0.5c0.3,0.1,0.7,0.1,1.4,0.1H59.7z"/>
		<path d="M68.2,115.6v-1c-0.3,0.4-0.7,0.6-1.1,0.8c-0.4,0.2-0.8,0.3-1.2,0.3c-0.5,0-0.9-0.1-1.3-0.4c-0.4-0.2-0.7-0.6-0.9-1
			c-0.2-0.4-0.3-1.1-0.3-2.1v-4.4h1.5v4.4c0,0.8,0.1,1.4,0.3,1.7c0.2,0.3,0.6,0.5,1.2,0.5c0.7,0,1.3-0.4,1.9-1.1v-5.5h1.5v7.7H68.2z
			"/>
		<path d="M76.7,110.9v3.3c0,0.3,0.1,0.4,0.3,0.4c0.2,0,0.5-0.1,0.9-0.4v0.9c-0.3,0.2-0.6,0.4-0.8,0.5c-0.2,0.1-0.4,0.1-0.7,0.1
			c-0.7,0-1-0.3-1.2-0.8c-0.6,0.5-1.3,0.8-2.1,0.8c-0.5,0-1-0.2-1.3-0.5c-0.4-0.4-0.5-0.8-0.5-1.3c0-0.5,0.2-0.9,0.5-1.3
			c0.3-0.4,0.8-0.7,1.5-0.9l2-0.7v-0.4c0-0.9-0.5-1.4-1.4-1.4c-0.8,0-1.6,0.4-2.4,1.3v-1.7c0.6-0.7,1.4-1,2.6-1c0.8,0,1.5,0.2,2,0.7
			c0.2,0.1,0.3,0.3,0.5,0.6c0.1,0.2,0.2,0.5,0.3,0.7C76.7,109.9,76.7,110.3,76.7,110.9z M75.2,114.1v-2.3l-1,0.4
			c-0.5,0.2-0.9,0.4-1.1,0.6c-0.2,0.2-0.3,0.5-0.3,0.8c0,0.3,0.1,0.6,0.3,0.8s0.5,0.3,0.8,0.3C74.4,114.7,74.8,114.5,75.2,114.1z"/>
		<path d="M78.1,109.1l2.9-2.8v1.6h2.4v1.4H81v3.8c0,0.9,0.4,1.3,1.1,1.3c0.5,0,1.1-0.2,1.7-0.5v1.4c-0.6,0.3-1.2,0.5-1.9,0.5
			c-0.7,0-1.3-0.2-1.7-0.6c-0.1-0.1-0.3-0.3-0.4-0.4c-0.1-0.2-0.2-0.4-0.2-0.6c-0.1-0.2-0.1-0.7-0.1-1.4v-3.4h-1.3V109.1z"/>
		<path d="M91.5,111.9h-5.4c0,0.7,0.3,1.3,0.7,1.8c0.5,0.4,1,0.7,1.8,0.7c1,0,1.9-0.3,2.8-0.9v1.5c-0.5,0.3-0.9,0.5-1.4,0.7
			c-0.5,0.1-1,0.2-1.6,0.2c-0.9,0-1.5-0.2-2.1-0.5c-0.5-0.4-0.9-0.8-1.3-1.4c-0.3-0.6-0.5-1.3-0.5-2.1c0-1.2,0.3-2.1,1-2.9
			c0.7-0.7,1.5-1.1,2.6-1.1c1,0,1.8,0.4,2.4,1.1c0.6,0.7,0.9,1.7,0.9,2.9V111.9z M86.1,110.9H90c0-0.6-0.2-1.1-0.5-1.4
			c-0.3-0.3-0.8-0.5-1.3-0.5s-1,0.2-1.3,0.5C86.4,109.9,86.2,110.3,86.1,110.9z"/>
		<path d="M98.2,115.6v-11.7h2.9c1.2,0,2.1,0.3,2.8,0.9c0.7,0.6,1,1.4,1,2.4c0,0.7-0.2,1.3-0.5,1.8c-0.3,0.5-0.8,0.9-1.5,1.1
			c0.4,0.2,0.7,0.6,1.1,1c0.4,0.4,0.9,1.2,1.5,2.2c0.4,0.7,0.7,1.2,1,1.5l0.6,0.8h-2l-0.5-0.8c0,0-0.1-0.1-0.1-0.1l-0.3-0.5
			l-0.5-0.9l-0.6-0.9c-0.3-0.5-0.7-0.9-1-1.1c-0.3-0.3-0.5-0.5-0.8-0.6c-0.2-0.1-0.6-0.2-1.2-0.2h-0.4v5.1H98.2z M100.4,105.3h-0.5
			v3.7h0.6c0.8,0,1.4-0.1,1.7-0.2c0.3-0.1,0.6-0.4,0.7-0.7c0.2-0.3,0.3-0.6,0.3-1c0-0.4-0.1-0.7-0.3-1c-0.2-0.3-0.5-0.5-0.8-0.6
			S101.2,105.3,100.4,105.3z"/>
		<path d="M112,107.9c1.2,0,2.1,0.4,2.9,1.1s1.2,1.7,1.2,2.9c0,1.1-0.4,2-1.2,2.8c-0.8,0.7-1.8,1.1-3,1.1c-1.2,0-2.1-0.4-2.9-1.1
			s-1.2-1.7-1.2-2.8c0-1.1,0.4-2.1,1.2-2.8C109.8,108.2,110.8,107.9,112,107.9z M111.9,109.2c-0.7,0-1.3,0.2-1.8,0.7
			c-0.5,0.5-0.7,1.1-0.7,1.8c0,0.7,0.2,1.3,0.7,1.8c0.5,0.5,1.1,0.7,1.9,0.7c0.7,0,1.4-0.2,1.8-0.7c0.5-0.5,0.7-1.1,0.7-1.8
			c0-0.7-0.2-1.3-0.7-1.8S112.7,109.2,111.9,109.2z"/>
		<path d="M121.5,107.9c1.2,0,2.1,0.4,2.9,1.1s1.2,1.7,1.2,2.9c0,1.1-0.4,2-1.2,2.8c-0.8,0.7-1.8,1.1-3,1.1c-1.2,0-2.1-0.4-2.9-1.1
			s-1.2-1.7-1.2-2.8c0-1.1,0.4-2.1,1.2-2.8C119.3,108.2,120.3,107.9,121.5,107.9z M121.4,109.2c-0.7,0-1.3,0.2-1.8,0.7
			c-0.5,0.5-0.7,1.1-0.7,1.8c0,0.7,0.2,1.3,0.7,1.8c0.5,0.5,1.1,0.7,1.9,0.7c0.7,0,1.4-0.2,1.8-0.7c0.5-0.5,0.7-1.1,0.7-1.8
			c0-0.7-0.2-1.3-0.7-1.8S122.2,109.2,121.4,109.2z"/>
		<path d="M133.6,110v5.6h-1.5v-4.3c0-0.9-0.1-1.5-0.3-1.8c-0.2-0.3-0.6-0.5-1.2-0.5c-0.3,0-0.6,0.1-0.9,0.2
			c-0.3,0.1-0.6,0.4-0.9,0.8v5.6h-1.5v-7.7h1.5v1c0.8-0.8,1.5-1.2,2.3-1.2c1,0,1.7,0.5,2.3,1.4c0.8-0.9,1.7-1.4,2.6-1.4
			c0.7,0,1.4,0.3,1.8,0.8s0.7,1.4,0.7,2.5v4.6h-1.5V111c0-0.6-0.1-1.1-0.4-1.5c-0.3-0.3-0.6-0.5-1.1-0.5
			C134.7,109,134.1,109.3,133.6,110z"/>
	</g>
	<g>
		<path d="M31.1,38.2l-1.4-0.8c-0.9-0.5-1.5-1-1.8-1.5c-0.4-0.5-0.5-1.1-0.5-1.8c0-1,0.3-1.8,1-2.4c0.7-0.6,1.6-0.9,2.7-0.9
			c1,0,2,0.3,2.9,0.9v2c-0.9-0.9-1.9-1.3-2.9-1.3c-0.6,0-1.1,0.1-1.4,0.4s-0.6,0.6-0.6,1c0,0.4,0.1,0.7,0.4,1.1s0.7,0.7,1.3,1
			l1.4,0.8c1.5,0.9,2.3,2.1,2.3,3.5c0,1-0.3,1.8-1,2.5s-1.6,0.9-2.6,0.9c-1.2,0-2.4-0.4-3.4-1.1v-2.3c1,1.2,2.1,1.8,3.4,1.8
			c0.6,0,1-0.2,1.4-0.5c0.4-0.3,0.6-0.7,0.6-1.2C32.8,39.6,32.2,38.9,31.1,38.2z"/>
		<path d="M35.1,36.5l3.1-3v1.7h2.6v1.5h-2.6v4.1c0,0.9,0.4,1.4,1.2,1.4c0.6,0,1.2-0.2,1.9-0.6V43c-0.6,0.4-1.3,0.5-2.1,0.5
			c-0.8,0-1.4-0.2-1.9-0.7c-0.2-0.1-0.3-0.3-0.4-0.4s-0.2-0.4-0.3-0.6c-0.1-0.3-0.1-0.8-0.1-1.5v-3.7h-1.4V36.5z"/>
		<path d="M47.5,38.5V42c0,0.3,0.1,0.4,0.3,0.4c0.2,0,0.5-0.1,0.9-0.4v1c-0.4,0.2-0.7,0.4-0.9,0.5c-0.2,0.1-0.5,0.1-0.7,0.1
			c-0.7,0-1.1-0.3-1.2-0.8c-0.7,0.5-1.4,0.8-2.2,0.8c-0.6,0-1.1-0.2-1.4-0.6c-0.4-0.4-0.6-0.9-0.6-1.4c0-0.5,0.2-1,0.6-1.4
			s0.9-0.7,1.6-1l2.1-0.7V38c0-1-0.5-1.5-1.5-1.5c-0.9,0-1.8,0.5-2.6,1.4v-1.8c0.6-0.7,1.6-1.1,2.7-1.1c0.9,0,1.6,0.2,2.2,0.7
			c0.2,0.1,0.3,0.3,0.5,0.6c0.1,0.2,0.2,0.5,0.3,0.7S47.5,37.8,47.5,38.5z M45.9,41.8v-2.5l-1.1,0.4c-0.6,0.2-1,0.4-1.2,0.7
			c-0.2,0.2-0.3,0.5-0.3,0.8c0,0.3,0.1,0.6,0.3,0.8c0.2,0.2,0.5,0.3,0.9,0.3C45,42.4,45.5,42.2,45.9,41.8z"/>
		<path d="M56.4,41.5v1.6c-0.8,0.3-1.6,0.5-2.4,0.5c-1.3,0-2.3-0.4-3.1-1.2c-0.8-0.8-1.2-1.8-1.2-3.1c0-1.3,0.4-2.4,1.1-3.1
			c0.8-0.8,1.7-1.2,3-1.2c0.4,0,0.8,0,1.1,0.1c0.3,0.1,0.8,0.2,1.3,0.5v1.7c-0.8-0.5-1.6-0.8-2.3-0.8c-0.7,0-1.3,0.3-1.8,0.8
			c-0.5,0.5-0.7,1.2-0.7,2c0,0.8,0.3,1.5,0.8,2c0.5,0.5,1.2,0.7,2.1,0.7C54.9,42.1,55.6,41.9,56.4,41.5z"/>
		<path d="M58.3,30.9h1.6v12.6h-1.6V30.9z M63.7,35.2h1.9l-3.5,4l4.3,4.2h-2.2L60,39.2L63.7,35.2z"/>
		<path d="M66.7,42.8v-1.8c0.5,0.3,0.9,0.6,1.4,0.8c0.5,0.2,0.9,0.3,1.2,0.3c0.3,0,0.6-0.1,0.9-0.3s0.4-0.4,0.4-0.6
			c0-0.2-0.1-0.4-0.2-0.6c-0.2-0.2-0.5-0.4-1-0.7c-1.1-0.6-1.7-1.1-2.1-1.5c-0.3-0.4-0.5-0.9-0.5-1.4c0-0.6,0.2-1.2,0.7-1.6
			c0.5-0.4,1.1-0.6,1.9-0.6c0.8,0,1.6,0.2,2.5,0.7v1.6c-1-0.6-1.8-0.9-2.4-0.9c-0.3,0-0.6,0.1-0.8,0.2c-0.2,0.1-0.3,0.3-0.3,0.5
			c0,0.2,0.1,0.4,0.3,0.5c0.2,0.2,0.5,0.4,0.9,0.6l0.6,0.3c1.4,0.8,2.1,1.6,2.1,2.6c0,0.7-0.3,1.2-0.8,1.7c-0.5,0.4-1.2,0.7-2,0.7
			c-0.5,0-0.9-0.1-1.3-0.2C67.8,43.3,67.3,43.1,66.7,42.8z"/>
	</g>
	<g>
		<path d="M30.8,87.7l-1.3-0.8c-0.8-0.5-1.4-1-1.7-1.4c-0.3-0.5-0.5-1-0.5-1.6c0-0.9,0.3-1.7,1-2.2c0.6-0.6,1.5-0.9,2.5-0.9
			c1,0,1.9,0.3,2.7,0.8v1.9c-0.8-0.8-1.8-1.2-2.7-1.2c-0.5,0-1,0.1-1.4,0.4c-0.4,0.3-0.5,0.6-0.5,1c0,0.4,0.1,0.7,0.4,1
			c0.3,0.3,0.7,0.6,1.3,1l1.3,0.8c1.4,0.9,2.1,1.9,2.1,3.3c0,0.9-0.3,1.7-0.9,2.3c-0.6,0.6-1.4,0.9-2.5,0.9c-1.2,0-2.2-0.4-3.2-1.1
			v-2.1c0.9,1.1,2,1.7,3.1,1.7c0.5,0,1-0.1,1.3-0.4c0.3-0.3,0.5-0.7,0.5-1.1C32.3,89,31.8,88.3,30.8,87.7z"/>
		<path d="M34.5,86.1l2.9-2.8v1.6h2.4v1.4h-2.4V90c0,0.9,0.4,1.3,1.1,1.3c0.5,0,1.1-0.2,1.7-0.5v1.4c-0.6,0.3-1.2,0.5-1.9,0.5
			c-0.7,0-1.3-0.2-1.7-0.6c-0.1-0.1-0.3-0.3-0.4-0.4c-0.1-0.2-0.2-0.4-0.2-0.6c-0.1-0.2-0.1-0.7-0.1-1.4v-3.4h-1.3V86.1z"/>
		<path d="M46.2,92.6v-1c-0.3,0.4-0.7,0.6-1.1,0.8c-0.4,0.2-0.8,0.3-1.2,0.3c-0.5,0-0.9-0.1-1.3-0.4c-0.4-0.2-0.7-0.6-0.9-1
			c-0.2-0.4-0.3-1.1-0.3-2.1v-4.4h1.5v4.4c0,0.8,0.1,1.4,0.3,1.7c0.2,0.3,0.6,0.5,1.2,0.5c0.7,0,1.3-0.4,1.9-1.1v-5.5h1.5v7.7H46.2z
			"/>
		<path d="M55.1,80.9h1.5v11.7h-3.3c-1.1,0-2.1-0.4-2.7-1.1c-0.7-0.7-1-1.7-1-2.9c0-1.1,0.4-2.1,1.1-2.8s1.6-1.1,2.7-1.1
			c0.5,0,1.1,0.1,1.7,0.3V80.9z M55.1,91.3v-4.9c-0.5-0.2-1-0.4-1.4-0.4c-0.8,0-1.4,0.2-1.8,0.7c-0.5,0.5-0.7,1.2-0.7,2
			c0,0.8,0.2,1.4,0.6,1.8c0.2,0.3,0.5,0.4,0.7,0.5c0.3,0.1,0.7,0.1,1.4,0.1H55.1z"/>
		<path d="M63.4,84.9h1.7l-5.5,11.6H58l2.6-5.6l-3-6.1h1.7l2.1,4.4L63.4,84.9z"/>
		<path d="M73.3,80.8h1.2l5.3,11.8H78l-1.6-3.5h-5L70,92.6h-1.7L73.3,80.8z M75.7,87.6l-1.9-4.2l-1.8,4.2H75.7z"/>
		<path d="M82.4,84.9v1.8l0.1-0.1c0.7-1.2,1.5-1.8,2.2-1.8c0.6,0,1.2,0.3,1.8,0.9l-0.8,1.3c-0.5-0.5-1-0.8-1.5-0.8
			c-0.5,0-0.9,0.2-1.3,0.7c-0.4,0.5-0.5,1-0.5,1.7v4h-1.5v-7.7H82.4z"/>
		<path d="M93.7,88.9h-5.4c0,0.7,0.3,1.3,0.7,1.8c0.5,0.4,1,0.7,1.8,0.7c1,0,1.9-0.3,2.8-0.9v1.5c-0.5,0.3-0.9,0.5-1.4,0.7
			c-0.5,0.1-1,0.2-1.6,0.2c-0.9,0-1.5-0.2-2.1-0.5c-0.5-0.4-0.9-0.8-1.3-1.4c-0.3-0.6-0.5-1.3-0.5-2.1c0-1.2,0.3-2.1,1-2.9
			c0.7-0.7,1.5-1.1,2.6-1.1c1,0,1.8,0.4,2.4,1.1c0.6,0.7,0.9,1.7,0.9,2.9V88.9z M88.4,88h3.9c0-0.6-0.2-1.1-0.5-1.4
			c-0.3-0.3-0.8-0.5-1.3-0.5s-1,0.2-1.3,0.5C88.7,86.9,88.5,87.3,88.4,88z"/>
		<path d="M100.2,88v3.3c0,0.3,0.1,0.4,0.3,0.4c0.2,0,0.5-0.1,0.9-0.4v0.9c-0.3,0.2-0.6,0.4-0.8,0.5c-0.2,0.1-0.4,0.1-0.7,0.1
			c-0.7,0-1-0.3-1.2-0.8c-0.6,0.5-1.3,0.8-2.1,0.8c-0.5,0-1-0.2-1.3-0.5c-0.4-0.4-0.5-0.8-0.5-1.3c0-0.5,0.2-0.9,0.5-1.3
			c0.3-0.4,0.8-0.7,1.5-0.9l2-0.7v-0.4c0-0.9-0.5-1.4-1.4-1.4c-0.8,0-1.6,0.4-2.4,1.3v-1.7c0.6-0.7,1.4-1,2.6-1c0.8,0,1.5,0.2,2,0.7
			c0.2,0.1,0.3,0.3,0.5,0.6c0.1,0.2,0.2,0.5,0.3,0.7C100.2,86.9,100.2,87.3,100.2,88z M98.7,91.1v-2.3l-1,0.4
			c-0.5,0.2-0.9,0.4-1.1,0.6c-0.2,0.2-0.3,0.5-0.3,0.8c0,0.3,0.1,0.6,0.3,0.8s0.5,0.3,0.8,0.3C97.9,91.7,98.3,91.5,98.7,91.1z"/>
		<path d="M102.4,92v-1.6c0.4,0.3,0.9,0.5,1.3,0.7s0.8,0.3,1.1,0.3c0.3,0,0.6-0.1,0.8-0.2c0.2-0.2,0.3-0.3,0.3-0.6
			c0-0.2-0.1-0.4-0.2-0.6c-0.1-0.1-0.5-0.4-1-0.6c-1-0.5-1.6-1-1.9-1.4s-0.5-0.8-0.5-1.3c0-0.6,0.2-1.1,0.7-1.5
			c0.5-0.4,1.1-0.6,1.8-0.6c0.8,0,1.5,0.2,2.3,0.6v1.5c-0.9-0.5-1.6-0.8-2.2-0.8c-0.3,0-0.5,0.1-0.7,0.2s-0.3,0.3-0.3,0.5
			c0,0.2,0.1,0.3,0.2,0.5s0.5,0.4,0.9,0.6l0.5,0.3c1.3,0.7,1.9,1.5,1.9,2.4c0,0.6-0.2,1.1-0.7,1.6s-1.1,0.6-1.9,0.6
			c-0.5,0-0.9,0-1.2-0.1S102.9,92.3,102.4,92z"/>
	</g>
	<rect x="1" y="31.9" fill="#1C3665" width="11.7" height="11.7"/>
	<rect x="1" y="55" fill="#939393" width="11.7" height="11.7"/>
	<rect x="1" y="79.5" fill="#F89B43" width="11.7" height="11.7"/>
	<rect x="1" y="104.1" fill="#6D8B3E" width="11.7" height="11.7"/>
	<g>
		<path d="M1.5,3.1h7.6v1.7H3.4v4.1h5.5v1.7H3.4v4.2h5.9v1.7H1.5V3.1z"/>
		<path d="M11.1,3.1h1.7v13.4h-1.7V3.1z"/>
		<path d="M22.9,12.3h-6.2c0,0.8,0.3,1.5,0.9,2c0.5,0.5,1.2,0.7,2,0.7c1.2,0,2.2-0.4,3.2-1.1v1.7c-0.5,0.4-1.1,0.6-1.6,0.8
			s-1.1,0.2-1.9,0.2c-1,0-1.8-0.2-2.4-0.6c-0.6-0.4-1.1-0.9-1.4-1.6c-0.4-0.7-0.5-1.5-0.5-2.4c0-1.3,0.4-2.4,1.1-3.3
			c0.8-0.8,1.8-1.3,3-1.3c1.2,0,2.1,0.4,2.8,1.2s1,1.9,1,3.3V12.3z M16.7,11.2h4.4c0-0.7-0.3-1.2-0.6-1.6S19.7,9.1,19,9.1
			s-1.1,0.2-1.5,0.6S16.8,10.5,16.7,11.2z"/>
		<path d="M32,10.1v6.4h-1.8v-4.9c0-1-0.1-1.7-0.4-2.1C29.6,9.2,29.2,9,28.5,9c-0.4,0-0.7,0.1-1,0.2c-0.3,0.2-0.7,0.5-1,0.9v6.4
			h-1.7V7.7h1.7v1.2c0.9-0.9,1.8-1.3,2.6-1.3c1.1,0,2,0.5,2.6,1.6c0.9-1.1,1.9-1.6,2.9-1.6c0.9,0,1.6,0.3,2.1,0.9
			c0.6,0.6,0.8,1.6,0.8,2.9v5.2h-1.7v-5.2c0-0.7-0.2-1.3-0.5-1.7C35,9.2,34.6,9,34.1,9C33.3,9,32.7,9.4,32,10.1z"/>
		<path d="M47.5,12.3h-6.2c0,0.8,0.3,1.5,0.9,2c0.5,0.5,1.2,0.7,2,0.7c1.2,0,2.2-0.4,3.2-1.1v1.7c-0.5,0.4-1.1,0.6-1.6,0.8
			s-1.1,0.2-1.9,0.2c-1,0-1.8-0.2-2.4-0.6c-0.6-0.4-1.1-0.9-1.4-1.6c-0.4-0.7-0.5-1.5-0.5-2.4c0-1.3,0.4-2.4,1.1-3.3
			c0.8-0.8,1.8-1.3,3-1.3c1.2,0,2.1,0.4,2.8,1.2s1,1.9,1,3.3V12.3z M41.3,11.2h4.4c0-0.7-0.3-1.2-0.6-1.6s-0.9-0.6-1.5-0.6
			s-1.1,0.2-1.5,0.6S41.4,10.5,41.3,11.2z"/>
		<path d="M51.1,7.7v1.1c0.8-0.9,1.7-1.3,2.7-1.3c0.6,0,1.1,0.1,1.5,0.4c0.5,0.3,0.8,0.7,1.1,1.2c0.2,0.5,0.4,1.3,0.4,2.4v5.1H55v-5
			c0-0.9-0.1-1.5-0.4-1.9C54.3,9.2,53.9,9,53.2,9c-0.8,0-1.5,0.4-2.1,1.2v6.3h-1.8V7.7H51.1z"/>
		<path d="M58,9.1l3.3-3.2v1.8h2.8v1.6h-2.8v4.3c0,1,0.4,1.5,1.3,1.5c0.6,0,1.3-0.2,2-0.6v1.6c-0.7,0.4-1.4,0.6-2.2,0.6
			c-0.8,0-1.5-0.2-2-0.7c-0.2-0.1-0.3-0.3-0.4-0.5c-0.1-0.2-0.2-0.4-0.3-0.7c-0.1-0.3-0.1-0.8-0.1-1.6V9.3H58V9.1z"/>
		<path d="M65.3,15.9V14c0.5,0.3,1,0.6,1.5,0.8c0.5,0.2,0.9,0.3,1.3,0.3c0.4,0,0.7-0.1,0.9-0.3c0.3-0.2,0.4-0.4,0.4-0.6
			c0-0.3-0.1-0.5-0.3-0.6c-0.2-0.2-0.5-0.4-1.1-0.7c-1.1-0.6-1.9-1.2-2.2-1.6c-0.3-0.4-0.5-0.9-0.5-1.5c0-0.7,0.3-1.2,0.8-1.7
			c0.5-0.4,1.2-0.6,2-0.6c0.9,0,1.8,0.2,2.7,0.7V10c-1-0.6-1.9-0.9-2.5-0.9c-0.3,0-0.6,0.1-0.8,0.2c-0.2,0.1-0.3,0.3-0.3,0.6
			c0,0.2,0.1,0.4,0.3,0.6c0.2,0.2,0.5,0.4,1,0.7l0.6,0.4c1.5,0.8,2.2,1.8,2.2,2.8c0,0.7-0.3,1.3-0.9,1.8c-0.6,0.5-1.3,0.7-2.2,0.7
			c-0.5,0-1-0.1-1.4-0.2C66.5,16.4,66,16.2,65.3,15.9z"/>
	</g>
</g>
<g>
	<g>
		<path d="M297.6,16.5V3.1h4.5c1.8,0,3.3,0.3,4.3,0.8c1.1,0.5,1.9,1.4,2.5,2.4c0.6,1.1,0.9,2.2,0.9,3.5c0,0.9-0.2,1.8-0.5,2.6
			c-0.3,0.8-0.8,1.5-1.5,2.2c-0.7,0.6-1.4,1.1-2.3,1.5c-0.5,0.2-1,0.3-1.4,0.4s-1.2,0.1-2.4,0.1H297.6z M301.9,4.8h-2.4v10h2.5
			c1,0,1.7-0.1,2.2-0.2s1-0.3,1.3-0.5s0.7-0.4,1-0.7c0.9-1,1.4-2.2,1.4-3.6c0-1.4-0.5-2.6-1.5-3.5c-0.4-0.3-0.8-0.6-1.2-0.8
			c-0.5-0.2-0.9-0.4-1.3-0.4C303.5,4.9,302.8,4.8,301.9,4.8z"/>
		<path d="M313,4c0.3,0,0.5,0.1,0.7,0.3c0.2,0.2,0.3,0.4,0.3,0.7c0,0.3-0.1,0.5-0.3,0.7s-0.5,0.3-0.7,0.3c-0.3,0-0.5-0.1-0.7-0.3
			S312,5.3,312,5c0-0.3,0.1-0.5,0.3-0.7C312.5,4.1,312.7,4,313,4z M312.1,7.7h1.7v8.8h-1.7V7.7z"/>
		<path d="M318.3,7.7v2l0.1-0.2c0.8-1.4,1.7-2,2.5-2c0.7,0,1.3,0.3,2.1,1l-0.9,1.5c-0.6-0.6-1.2-0.9-1.7-0.9c-0.6,0-1.1,0.3-1.5,0.8
			c-0.4,0.5-0.6,1.2-0.6,1.9v4.6h-1.8V7.7H318.3z"/>
		<path d="M331.4,12.3h-6.2c0,0.8,0.3,1.5,0.9,2c0.5,0.5,1.2,0.7,2,0.7c1.2,0,2.2-0.4,3.2-1.1v1.7c-0.5,0.4-1.1,0.6-1.6,0.8
			c-0.5,0.2-1.1,0.2-1.9,0.2c-1,0-1.8-0.2-2.4-0.6c-0.6-0.4-1.1-0.9-1.4-1.6c-0.4-0.7-0.5-1.5-0.5-2.4c0-1.3,0.4-2.4,1.1-3.3
			c0.8-0.8,1.8-1.3,3-1.3c1.2,0,2.1,0.4,2.8,1.2s1,1.9,1,3.3V12.3z M325.2,11.2h4.4c0-0.7-0.3-1.2-0.6-1.6c-0.4-0.4-0.9-0.6-1.5-0.6
			c-0.6,0-1.1,0.2-1.5,0.6S325.3,10.5,325.2,11.2z"/>
		<path d="M339.9,14.5v1.7c-0.9,0.3-1.7,0.5-2.6,0.5c-1.4,0-2.5-0.4-3.3-1.2s-1.2-1.9-1.2-3.3c0-1.4,0.4-2.5,1.2-3.4
			s1.9-1.3,3.2-1.3c0.5,0,0.9,0,1.2,0.1c0.4,0.1,0.8,0.2,1.3,0.5V10c-0.9-0.6-1.7-0.8-2.5-0.8c-0.8,0-1.4,0.3-1.9,0.8
			c-0.5,0.6-0.8,1.3-0.8,2.1c0,0.9,0.3,1.6,0.8,2.2s1.3,0.8,2.2,0.8C338.2,15.1,339,14.9,339.9,14.5z"/>
		<path d="M340.6,9.1l3.3-3.2v1.8h2.8v1.6h-2.8v4.3c0,1,0.4,1.5,1.3,1.5c0.6,0,1.3-0.2,2-0.6v1.6c-0.7,0.4-1.4,0.6-2.2,0.6
			c-0.8,0-1.5-0.2-2-0.7c-0.2-0.1-0.3-0.3-0.4-0.5c-0.1-0.2-0.2-0.4-0.3-0.7c-0.1-0.3-0.1-0.8-0.1-1.6V9.3h-1.5V9.1z"/>
		<path d="M352.6,7.7c1.3,0,2.5,0.4,3.4,1.3c0.9,0.9,1.3,2,1.3,3.3c0,1.3-0.5,2.3-1.4,3.2s-2,1.3-3.4,1.3c-1.3,0-2.4-0.4-3.3-1.3
			c-0.9-0.9-1.3-1.9-1.3-3.2c0-1.3,0.5-2.4,1.3-3.2C350.1,8.1,351.2,7.7,352.6,7.7z M352.5,9.3c-0.8,0-1.5,0.3-2.1,0.8
			c-0.5,0.6-0.8,1.3-0.8,2.1c0,0.8,0.3,1.5,0.8,2.1c0.6,0.5,1.3,0.8,2.1,0.8c0.9,0,1.6-0.3,2.1-0.8c0.5-0.5,0.8-1.2,0.8-2.1
			c0-0.8-0.3-1.5-0.9-2.1C354.1,9.5,353.3,9.3,352.5,9.3z"/>
		<path d="M361.1,7.7v2l0.1-0.2c0.8-1.4,1.7-2,2.5-2c0.7,0,1.3,0.3,2.1,1l-0.9,1.5c-0.6-0.6-1.2-0.9-1.7-0.9c-0.6,0-1.1,0.3-1.5,0.8
			c-0.4,0.5-0.6,1.2-0.6,1.9v4.6h-1.8V7.7H361.1z"/>
		<path d="M372.9,7.7h2l-6.3,13.3h-2l3-6.4l-3.4-6.9h2l2.4,5L372.9,7.7z"/>
	</g>
	<g>
		<path d="M324,45.7V34h2.9c1.2,0,2.1,0.3,2.8,0.9c0.7,0.6,1,1.4,1,2.4c0,0.7-0.2,1.3-0.5,1.8c-0.3,0.5-0.8,0.9-1.5,1.1
			c0.4,0.2,0.7,0.6,1.1,1c0.4,0.4,0.9,1.2,1.5,2.2c0.4,0.7,0.7,1.2,1,1.5l0.6,0.8h-2l-0.5-0.8c0,0-0.1-0.1-0.1-0.1l-0.3-0.5
			l-0.5-0.9l-0.6-0.9c-0.3-0.5-0.7-0.9-1-1.1c-0.3-0.3-0.5-0.5-0.8-0.6s-0.6-0.2-1.2-0.2h-0.4v5.1H324z M326.2,35.4h-0.5v3.7h0.6
			c0.8,0,1.4-0.1,1.7-0.2c0.3-0.1,0.6-0.4,0.7-0.7c0.2-0.3,0.3-0.6,0.3-1c0-0.4-0.1-0.7-0.3-1c-0.2-0.3-0.5-0.5-0.8-0.6
			C327.6,35.5,327,35.4,326.2,35.4z"/>
		<path d="M340.7,42h-5.4c0,0.7,0.3,1.3,0.7,1.8c0.5,0.4,1,0.7,1.8,0.7c1,0,1.9-0.3,2.8-0.9V45c-0.5,0.3-0.9,0.5-1.4,0.7
			c-0.5,0.1-1,0.2-1.6,0.2c-0.8,0-1.5-0.2-2.1-0.5c-0.5-0.4-0.9-0.8-1.3-1.4c-0.3-0.6-0.5-1.3-0.5-2.1c0-1.2,0.3-2.1,1-2.9
			c0.7-0.7,1.5-1.1,2.6-1.1c1,0,1.8,0.4,2.4,1.1c0.6,0.7,0.9,1.7,0.9,2.9V42z M335.3,41.1h3.9c0-0.6-0.2-1.1-0.5-1.4
			c-0.3-0.3-0.8-0.5-1.3-0.5s-1,0.2-1.3,0.5C335.7,40,335.4,40.5,335.3,41.1z"/>
		<path d="M342,45.2v-1.6c0.4,0.3,0.9,0.5,1.3,0.7c0.4,0.2,0.8,0.3,1.1,0.3c0.3,0,0.6-0.1,0.8-0.2c0.2-0.2,0.3-0.3,0.3-0.6
			c0-0.2-0.1-0.4-0.2-0.6c-0.1-0.1-0.5-0.4-1-0.6c-1-0.5-1.6-1-1.9-1.4c-0.3-0.4-0.5-0.8-0.5-1.3c0-0.6,0.2-1.1,0.7-1.5
			s1.1-0.6,1.8-0.6c0.8,0,1.5,0.2,2.3,0.6V40c-0.9-0.5-1.6-0.8-2.2-0.8c-0.3,0-0.5,0.1-0.7,0.2c-0.2,0.1-0.3,0.3-0.3,0.5
			c0,0.2,0.1,0.4,0.2,0.5c0.2,0.2,0.5,0.4,0.9,0.6l0.5,0.3c1.3,0.7,1.9,1.5,1.9,2.4c0,0.6-0.2,1.1-0.7,1.6c-0.5,0.4-1.1,0.6-1.9,0.6
			c-0.5,0-0.9,0-1.2-0.1C343,45.6,342.5,45.4,342,45.2z"/>
		<path d="M348,39.2l2.9-2.8V38h2.4v1.4h-2.4v3.8c0,0.9,0.4,1.3,1.1,1.3c0.5,0,1.1-0.2,1.7-0.5v1.4c-0.6,0.3-1.2,0.5-1.9,0.5
			c-0.7,0-1.3-0.2-1.7-0.6c-0.1-0.1-0.3-0.3-0.4-0.4c-0.1-0.2-0.2-0.4-0.2-0.6c-0.1-0.2-0.1-0.7-0.1-1.4v-3.4H348V39.2z"/>
		<path d="M356.4,38v1.8l0.1-0.1c0.7-1.2,1.5-1.8,2.2-1.8c0.6,0,1.2,0.3,1.8,0.9l-0.8,1.3c-0.5-0.5-1-0.8-1.5-0.8
			c-0.5,0-0.9,0.2-1.3,0.7c-0.4,0.5-0.5,1-0.5,1.7v4h-1.5V38H356.4z"/>
		<path d="M364.8,38c1.2,0,2.1,0.4,2.9,1.1s1.2,1.7,1.2,2.9c0,1.1-0.4,2-1.2,2.8c-0.8,0.7-1.8,1.1-3,1.1c-1.2,0-2.1-0.4-2.9-1.1
			c-0.8-0.7-1.2-1.7-1.2-2.8c0-1.1,0.4-2.1,1.2-2.8S363.6,38,364.8,38z M364.8,39.4c-0.7,0-1.3,0.2-1.8,0.7
			c-0.5,0.5-0.7,1.1-0.7,1.8c0,0.7,0.2,1.3,0.7,1.8c0.5,0.5,1.1,0.7,1.9,0.7c0.7,0,1.4-0.2,1.8-0.7c0.5-0.5,0.7-1.1,0.7-1.8
			c0-0.7-0.2-1.3-0.7-1.8C366.1,39.6,365.5,39.4,364.8,39.4z"/>
		<path d="M374.3,38c1.2,0,2.1,0.4,2.9,1.1s1.2,1.7,1.2,2.9c0,1.1-0.4,2-1.2,2.8c-0.8,0.7-1.8,1.1-3,1.1c-1.2,0-2.1-0.4-2.9-1.1
			c-0.8-0.7-1.2-1.7-1.2-2.8c0-1.1,0.4-2.1,1.2-2.8S373.1,38,374.3,38z M374.2,39.4c-0.7,0-1.3,0.2-1.8,0.7
			c-0.5,0.5-0.7,1.1-0.7,1.8c0,0.7,0.2,1.3,0.7,1.8c0.5,0.5,1.1,0.7,1.9,0.7c0.7,0,1.4-0.2,1.8-0.7c0.5-0.5,0.7-1.1,0.7-1.8
			c0-0.7-0.2-1.3-0.7-1.8C375.6,39.6,375,39.4,374.2,39.4z"/>
		<path d="M386.5,40.1v5.6h-1.5v-4.3c0-0.9-0.1-1.5-0.3-1.8c-0.2-0.3-0.6-0.5-1.2-0.5c-0.3,0-0.6,0.1-0.9,0.2s-0.6,0.4-0.9,0.8v5.6
			h-1.5V38h1.5v1c0.8-0.8,1.5-1.2,2.3-1.2c1,0,1.7,0.5,2.3,1.4c0.8-0.9,1.7-1.4,2.6-1.4c0.7,0,1.4,0.3,1.8,0.8s0.7,1.4,0.7,2.5v4.6
			h-1.5v-4.6c0-0.6-0.1-1.1-0.4-1.5s-0.6-0.5-1.1-0.5C387.6,39.2,387,39.5,386.5,40.1z"/>
		<path d="M393,45.2v-1.6c0.4,0.3,0.9,0.5,1.3,0.7c0.4,0.2,0.8,0.3,1.1,0.3c0.3,0,0.6-0.1,0.8-0.2c0.2-0.2,0.3-0.3,0.3-0.6
			c0-0.2-0.1-0.4-0.2-0.6c-0.1-0.1-0.5-0.4-1-0.6c-1-0.5-1.6-1-1.9-1.4c-0.3-0.4-0.5-0.8-0.5-1.3c0-0.6,0.2-1.1,0.7-1.5
			s1.1-0.6,1.8-0.6c0.8,0,1.5,0.2,2.3,0.6V40c-0.9-0.5-1.6-0.8-2.2-0.8c-0.3,0-0.5,0.1-0.7,0.2c-0.2,0.1-0.3,0.3-0.3,0.5
			c0,0.2,0.1,0.4,0.2,0.5c0.2,0.2,0.5,0.4,0.9,0.6l0.5,0.3c1.3,0.7,1.9,1.5,1.9,2.4c0,0.6-0.2,1.1-0.7,1.6c-0.5,0.4-1.1,0.6-1.9,0.6
			c-0.5,0-0.9,0-1.2-0.1C394,45.6,393.5,45.4,393,45.2z"/>
	</g>
	<g>
		<path d="M324,59.8h6.6v1.5h-5v3.6h4.8v1.5h-4.8V70h5.1v1.5H324V59.8z"/>
		<path d="M332.4,59.8h1.5v11.7h-1.5V59.8z"/>
		<path d="M342.7,67.8h-5.4c0,0.7,0.3,1.3,0.7,1.8c0.5,0.4,1,0.7,1.8,0.7c1,0,1.9-0.3,2.8-0.9v1.5c-0.5,0.3-0.9,0.5-1.4,0.7
			c-0.5,0.1-1,0.2-1.6,0.2c-0.8,0-1.5-0.2-2.1-0.5c-0.5-0.4-0.9-0.8-1.3-1.4c-0.3-0.6-0.5-1.3-0.5-2.1c0-1.2,0.3-2.1,1-2.9
			c0.7-0.7,1.5-1.1,2.6-1.1c1,0,1.8,0.4,2.4,1.1c0.6,0.7,0.9,1.7,0.9,2.9V67.8z M337.3,66.9h3.9c0-0.6-0.2-1.1-0.5-1.4
			c-0.3-0.3-0.8-0.5-1.3-0.5s-1,0.2-1.3,0.5C337.6,65.8,337.4,66.3,337.3,66.9z"/>
		<path d="M348.9,63.8h1.7l-3.4,7.8h-0.5l-3.5-7.8h1.7l2.1,4.7L348.9,63.8z"/>
		<path d="M356.5,66.9v3.3c0,0.3,0.1,0.4,0.3,0.4c0.2,0,0.5-0.1,0.9-0.4v0.9c-0.3,0.2-0.6,0.4-0.8,0.5c-0.2,0.1-0.4,0.1-0.7,0.1
			c-0.7,0-1-0.3-1.2-0.8c-0.6,0.5-1.3,0.8-2.1,0.8c-0.5,0-1-0.2-1.3-0.5c-0.4-0.4-0.5-0.8-0.5-1.3c0-0.5,0.2-0.9,0.5-1.3
			s0.8-0.7,1.5-0.9l2-0.7v-0.4c0-0.9-0.5-1.4-1.4-1.4c-0.8,0-1.6,0.4-2.4,1.3v-1.7c0.6-0.7,1.4-1,2.6-1c0.8,0,1.5,0.2,2,0.7
			c0.2,0.1,0.3,0.3,0.5,0.6c0.1,0.2,0.2,0.5,0.3,0.7C356.5,65.8,356.5,66.2,356.5,66.9z M355,70v-2.3l-1,0.4
			c-0.5,0.2-0.9,0.4-1.1,0.6c-0.2,0.2-0.3,0.5-0.3,0.8c0,0.3,0.1,0.6,0.3,0.8s0.5,0.3,0.8,0.3C354.2,70.6,354.6,70.4,355,70z"/>
		<path d="M357.9,65l2.9-2.8v1.6h2.4v1.4h-2.4V69c0,0.9,0.4,1.3,1.1,1.3c0.5,0,1.1-0.2,1.7-0.5v1.4c-0.6,0.3-1.2,0.5-1.9,0.5
			c-0.7,0-1.3-0.2-1.7-0.6c-0.1-0.1-0.3-0.3-0.4-0.4c-0.1-0.2-0.2-0.4-0.2-0.6c-0.1-0.2-0.1-0.7-0.1-1.4v-3.4h-1.3V65z"/>
		<path d="M368.4,63.8c1.2,0,2.1,0.4,2.9,1.1s1.2,1.7,1.2,2.9c0,1.1-0.4,2-1.2,2.8c-0.8,0.7-1.8,1.1-3,1.1c-1.2,0-2.1-0.4-2.9-1.1
			c-0.8-0.7-1.2-1.7-1.2-2.8c0-1.1,0.4-2.1,1.2-2.8S367.2,63.8,368.4,63.8z M368.3,65.2c-0.7,0-1.3,0.2-1.8,0.7
			c-0.5,0.5-0.7,1.1-0.7,1.8c0,0.7,0.2,1.3,0.7,1.8c0.5,0.5,1.1,0.7,1.9,0.7c0.7,0,1.4-0.2,1.8-0.7c0.5-0.5,0.7-1.1,0.7-1.8
			c0-0.7-0.2-1.3-0.7-1.8C369.7,65.4,369.1,65.2,368.3,65.2z"/>
		<path d="M375.8,63.8v1.8l0.1-0.1c0.7-1.2,1.5-1.8,2.2-1.8c0.6,0,1.2,0.3,1.8,0.9l-0.8,1.3c-0.5-0.5-1-0.8-1.5-0.8
			c-0.5,0-0.9,0.2-1.3,0.7c-0.4,0.5-0.5,1-0.5,1.7v4h-1.5v-7.7H375.8z"/>
		<path d="M380.6,71v-1.6c0.4,0.3,0.9,0.5,1.3,0.7c0.4,0.2,0.8,0.3,1.1,0.3c0.3,0,0.6-0.1,0.8-0.2c0.2-0.2,0.3-0.3,0.3-0.6
			c0-0.2-0.1-0.4-0.2-0.6c-0.1-0.1-0.5-0.4-1-0.6c-1-0.5-1.6-1-1.9-1.4c-0.3-0.4-0.5-0.8-0.5-1.3c0-0.6,0.2-1.1,0.7-1.5
			s1.1-0.6,1.8-0.6c0.8,0,1.5,0.2,2.3,0.6v1.5c-0.9-0.5-1.6-0.8-2.2-0.8c-0.3,0-0.5,0.1-0.7,0.2c-0.2,0.1-0.3,0.3-0.3,0.5
			c0,0.2,0.1,0.4,0.2,0.5c0.2,0.2,0.5,0.4,0.9,0.6l0.5,0.3c1.3,0.7,1.9,1.5,1.9,2.4c0,0.6-0.2,1.1-0.7,1.6c-0.5,0.4-1.1,0.6-1.9,0.6
			c-0.5,0-0.9,0-1.2-0.1C381.6,71.4,381.2,71.2,380.6,71z"/>
	</g>
	<g>
		<path d="M326.9,91.8l-1.3-0.8c-0.8-0.5-1.4-1-1.7-1.4c-0.3-0.5-0.5-1-0.5-1.6c0-0.9,0.3-1.7,1-2.2c0.6-0.6,1.5-0.9,2.5-0.9
			c1,0,1.9,0.3,2.7,0.8v1.9c-0.8-0.8-1.8-1.2-2.7-1.2c-0.5,0-1,0.1-1.3,0.4c-0.4,0.3-0.5,0.6-0.5,1c0,0.4,0.1,0.7,0.4,1
			c0.3,0.3,0.7,0.6,1.3,1l1.3,0.8c1.4,0.9,2.1,1.9,2.1,3.3c0,0.9-0.3,1.7-0.9,2.3s-1.4,0.9-2.5,0.9c-1.2,0-2.2-0.4-3.2-1.1v-2.1
			c0.9,1.1,2,1.7,3.1,1.7c0.5,0,1-0.1,1.3-0.4c0.3-0.3,0.5-0.7,0.5-1.1C328.4,93.1,327.9,92.5,326.9,91.8z"/>
		<path d="M330.6,90.3l2.9-2.8V89h2.4v1.4h-2.4v3.8c0,0.9,0.4,1.3,1.1,1.3c0.5,0,1.1-0.2,1.7-0.5v1.4c-0.6,0.3-1.2,0.5-1.9,0.5
			c-0.7,0-1.3-0.2-1.7-0.6c-0.1-0.1-0.3-0.3-0.4-0.4c-0.1-0.2-0.2-0.4-0.2-0.6c-0.1-0.2-0.1-0.7-0.1-1.4v-3.4h-1.3V90.3z"/>
		<path d="M342.2,92.1v3.3c0,0.3,0.1,0.4,0.3,0.4c0.2,0,0.5-0.1,0.9-0.4v0.9c-0.3,0.2-0.6,0.4-0.8,0.5c-0.2,0.1-0.4,0.1-0.7,0.1
			c-0.7,0-1-0.3-1.2-0.8c-0.6,0.5-1.3,0.8-2.1,0.8c-0.5,0-1-0.2-1.3-0.5c-0.4-0.4-0.5-0.8-0.5-1.3c0-0.5,0.2-0.9,0.5-1.3
			s0.8-0.7,1.5-0.9l2-0.7v-0.4c0-0.9-0.5-1.4-1.4-1.4c-0.8,0-1.6,0.4-2.4,1.3v-1.7c0.6-0.7,1.4-1,2.6-1c0.8,0,1.5,0.2,2,0.7
			c0.2,0.1,0.3,0.3,0.5,0.6c0.1,0.2,0.2,0.5,0.3,0.7C342.2,91,342.2,91.5,342.2,92.1z M340.7,95.2v-2.3l-1,0.4
			c-0.5,0.2-0.9,0.4-1.1,0.6c-0.2,0.2-0.3,0.5-0.3,0.8c0,0.3,0.1,0.6,0.3,0.8s0.5,0.3,0.8,0.3C339.8,95.8,340.3,95.6,340.7,95.2z"/>
		<path d="M345.5,85.8c0.3,0,0.5,0.1,0.6,0.3c0.2,0.2,0.3,0.4,0.3,0.6c0,0.2-0.1,0.5-0.3,0.6s-0.4,0.3-0.6,0.3
			c-0.2,0-0.4-0.1-0.6-0.3s-0.3-0.4-0.3-0.6c0-0.2,0.1-0.4,0.3-0.6S345.2,85.8,345.5,85.8z M344.7,89h1.5v7.7h-1.5V89z"/>
		<path d="M350.1,89v1.8l0.1-0.1c0.7-1.2,1.5-1.8,2.2-1.8c0.6,0,1.2,0.3,1.8,0.9l-0.8,1.3c-0.5-0.5-1-0.8-1.5-0.8
			c-0.5,0-0.9,0.2-1.3,0.7c-0.4,0.5-0.5,1-0.5,1.7v4h-1.5V89H350.1z"/>
		<path d="M354.9,96.2v-1.6c0.4,0.3,0.9,0.5,1.3,0.7c0.4,0.2,0.8,0.3,1.1,0.3c0.3,0,0.6-0.1,0.8-0.2c0.2-0.2,0.3-0.3,0.3-0.6
			c0-0.2-0.1-0.4-0.2-0.6c-0.1-0.1-0.5-0.4-1-0.6c-1-0.5-1.6-1-1.9-1.4s-0.5-0.8-0.5-1.3c0-0.6,0.2-1.1,0.7-1.5
			c0.5-0.4,1.1-0.6,1.8-0.6c0.8,0,1.5,0.2,2.3,0.6V91c-0.9-0.5-1.6-0.8-2.2-0.8c-0.3,0-0.5,0.1-0.7,0.2s-0.3,0.3-0.3,0.5
			c0,0.2,0.1,0.3,0.2,0.5c0.2,0.2,0.5,0.4,0.9,0.6l0.5,0.3c1.3,0.7,1.9,1.5,1.9,2.4c0,0.6-0.2,1.1-0.7,1.6c-0.5,0.4-1.1,0.6-1.9,0.6
			c-0.5,0-0.9,0-1.2-0.1C355.9,96.6,355.4,96.5,354.9,96.2z"/>
	</g>
	<g>
		<path fill="#43505F" d="M303.3,33.3c0.3,0,0.6,0,0.9,0c0,4,0,8.1,0,12.1c-0.3,0-0.6,0-0.9,0C303.3,41.4,303.3,37.4,303.3,33.3
			C303.3,33.3,303.3,33.3,303.3,33.3z"/>
		<path fill="#43505F" d="M308.4,33.3c0.5,0,1,0.3,1,0.9c0.1,1.4-2,1.3-2,0.1C307.5,33.7,307.8,33.3,308.4,33.3z"/>
		<path fill="#43505F" d="M298.7,33.3c0.7-0.1,1.4,0.5,1.1,1.3c-0.4,1.1-2.3,0.5-1.8-0.8C298.1,33.7,298.4,33.4,298.7,33.3z"/>
		<path fill="#43505F" d="M310.3,36.8c-0.1,0-0.3,0-0.4,0c-0.1,2.2,0.1,4.9,0,7.3c0,0.6,0,1.2-0.5,1.2c-0.8,0-0.6-1.5-0.6-2.3
			c0-1,0-1.9,0-2.9c-0.1,0-0.3,0-0.4,0c-0.1,0.9,0,1.9,0,2.9c0,0.8,0.2,2.3-0.6,2.3c-0.7,0-0.5-1-0.5-1.8c0-2.2,0-4.6,0-6.8
			c-0.2,0-0.3,0-0.5,0c-0.1,0.6,0,1.3,0,1.9c0,0.7,0.2,1.6-0.5,1.4c-0.4-0.1-0.3-1-0.3-1.8c0-1.7-0.2-2.8,1.1-2.9
			c0.6-0.1,2.1-0.1,2.8,0c0.6,0.1,1.1,0.5,1.2,1.1c0.1,0.4,0,1.3,0,2c0,0.7,0.1,1.6-0.2,1.7c-0.6,0.2-0.5-0.7-0.5-1.4
			C310.3,38.1,310.3,37.6,310.3,36.8z"/>
		<path fill="#43505F" d="M300.5,36.8c-0.1,0-0.3,0-0.4,0c0.3,1.4,0.8,3,1.2,4.5c-0.4,0-0.8,0-1.2,0c-0.1,0.6,0,1.3,0,2.1
			c0,0.6,0.1,1.7-0.2,1.9c-0.1,0.1-0.4,0.1-0.6,0c-0.3-0.2-0.1-1.3-0.1-1.9c0-0.8,0-1.4,0-2c-0.1-0.1-0.3,0-0.5,0c0,0.7,0,1.3,0,2.1
			c0,0.6,0.1,1.7-0.2,1.9c-0.1,0.1-0.4,0.1-0.5,0c-0.3-0.2-0.2-1.3-0.2-1.9c0-0.8,0-1.4,0-2.1c-0.4,0-0.8,0-1.2,0
			c0.4-1.5,0.8-3,1.2-4.5c-0.1-0.1-0.3,0-0.4,0c-0.2,0.5-0.3,1-0.5,1.5c-0.1,0.3-0.2,1.3-0.6,1.4c-0.9,0.1-0.1-1.6,0-2
			c0.3-1,0.4-2.1,1.4-2.2c0.4,0,0.8,0,1.2,0c1.1,0,1.8,0,2.2,0.8c0.2,0.4,0.4,1.1,0.5,1.5c0.1,0.2,0.2,0.5,0.2,0.8
			c0.1,0.4,0.4,1.2-0.2,1.1c-0.4,0-0.6-1-0.7-1.3C300.7,37.8,300.6,37.4,300.5,36.8z"/>
	</g>
	<g>
		<path fill="#43505F" d="M297.9,69.7v-8.2l2.6,2.6c0.3,0.3,0.7,0.3,1,0c0.3-0.3,0.3-0.7,0-1l-3.5-3.5l-0.7-0.7l-0.7,0.7l-3.5,3.5
			c-0.1,0.1-0.2,0.3-0.2,0.5c0,0.2,0.1,0.4,0.2,0.5c0.3,0.3,0.7,0.3,1,0l2.5-2.6v8.2c0,0.4,0.3,0.7,0.7,0.7
			C297.6,70.4,297.9,70.1,297.9,69.7z"/>
		<path fill="#43505F" d="M307.6,59.5v8.2l-2.6-2.6c-0.3-0.3-0.7-0.3-1,0c-0.3,0.3-0.3,0.7,0,1l3.5,3.5l0.7,0.7l0.7-0.7l3.5-3.5
			c0.1-0.1,0.2-0.3,0.2-0.5c0-0.2-0.1-0.4-0.2-0.5c-0.3-0.3-0.7-0.3-1,0l-2.5,2.6v-8.2c0-0.4-0.3-0.7-0.7-0.7
			C307.9,58.8,307.6,59.1,307.6,59.5z"/>
	</g>
	<g>
		<rect x="290.4" y="85.3" fill="none" stroke="#43505F" stroke-width="1.2284" stroke-miterlimit="10" width="25.7" height="12"/>
		<line fill="none" stroke="#43505F" stroke-width="1.2284" stroke-miterlimit="10" x1="300.9" y1="85.3" x2="300.9" y2="97.3"/>
		<line fill="none" stroke="#43505F" stroke-width="1.2284" stroke-miterlimit="10" x1="304" y1="85.8" x2="304" y2="97.3"/>
		<line fill="none" stroke="#43505F" stroke-width="1.2284" stroke-miterlimit="10" x1="307.1" y1="85.8" x2="307.1" y2="96.8"/>
		<line fill="none" stroke="#43505F" stroke-width="1.2284" stroke-miterlimit="10" x1="310.1" y1="85.8" x2="310.1" y2="97.3"/>
		<line fill="none" stroke="#43505F" stroke-width="1.2284" stroke-miterlimit="10" x1="313.2" y1="85.3" x2="313.2" y2="96.8"/>
	</g>
</g>
<g>
	<path d="M34.9,127.7c1.9,0,3.6,0.6,4.9,1.8c1.3,1.2,1.9,2.8,1.9,4.6c0,1.9-0.7,3.4-2,4.6s-2.9,1.8-4.9,1.8c-1.9,0-3.5-0.6-4.7-1.8
		s-1.9-2.7-1.9-4.6c0-1.9,0.6-3.4,1.9-4.7C31.4,128.3,33,127.7,34.9,127.7z M35,129.4c-1.4,0-2.6,0.5-3.5,1.3s-1.4,2-1.4,3.4
		c0,1.4,0.5,2.5,1.4,3.4c0.9,0.9,2.1,1.3,3.5,1.3c1.4,0,2.6-0.5,3.5-1.4c0.9-0.9,1.4-2.1,1.4-3.4c0-1.3-0.5-2.5-1.4-3.4
		C37.5,129.8,36.3,129.4,35,129.4z"/>
	<path d="M43.9,132.1v-0.5c0-1.3,0.3-2.3,0.9-3c0.6-0.7,1.2-1,2-1c0.3,0,0.7,0.1,1.2,0.2v1.6c-0.3-0.1-0.5-0.1-0.8-0.1
		c-0.6,0-1.1,0.2-1.3,0.5c-0.2,0.3-0.4,1-0.4,1.8v0.5H47v1.5h-1.5v6.8h-1.6v-6.8h-1.2v-1.5H43.9z"/>
	<path d="M48.5,132.1v-0.5c0-1.3,0.3-2.3,0.9-3c0.6-0.7,1.2-1,2-1c0.3,0,0.7,0.1,1.2,0.2v1.6c-0.3-0.1-0.5-0.1-0.8-0.1
		c-0.6,0-1.1,0.2-1.3,0.5c-0.2,0.3-0.4,1-0.4,1.8v0.5h1.5v1.5h-1.5v6.8h-1.6v-6.8h-1.2v-1.5H48.5z"/>
	<path d="M53.8,128.7c0.3,0,0.5,0.1,0.7,0.3c0.2,0.2,0.3,0.4,0.3,0.7c0,0.3-0.1,0.5-0.3,0.7c-0.2,0.2-0.4,0.3-0.7,0.3
		c-0.3,0-0.5-0.1-0.7-0.3c-0.2-0.2-0.3-0.4-0.3-0.7c0-0.3,0.1-0.5,0.3-0.7C53.3,128.8,53.5,128.7,53.8,128.7z M52.9,132.1h1.6v8.3
		h-1.6V132.1z"/>
	<path d="M63.2,138.5v1.6c-0.8,0.3-1.6,0.5-2.4,0.5c-1.3,0-2.3-0.4-3.1-1.2c-0.8-0.8-1.2-1.8-1.2-3.1c0-1.3,0.4-2.4,1.1-3.1
		c0.8-0.8,1.7-1.2,3-1.2c0.4,0,0.8,0,1.1,0.1c0.3,0.1,0.8,0.2,1.3,0.5v1.7c-0.8-0.5-1.6-0.8-2.3-0.8c-0.7,0-1.3,0.3-1.8,0.8
		c-0.5,0.5-0.7,1.2-0.7,2c0,0.8,0.3,1.5,0.8,2c0.5,0.5,1.2,0.7,2.1,0.7C61.6,139,62.4,138.8,63.2,138.5z"/>
	<path d="M72.1,136.4h-5.8c0,0.8,0.3,1.4,0.8,1.9c0.5,0.5,1.1,0.7,1.9,0.7c1.1,0,2.1-0.3,3-1v1.6c-0.5,0.3-1,0.6-1.5,0.7
		c-0.5,0.1-1.1,0.2-1.7,0.2c-0.9,0-1.6-0.2-2.2-0.6c-0.6-0.4-1-0.9-1.4-1.5s-0.5-1.4-0.5-2.2c0-1.3,0.4-2.3,1.1-3.1s1.6-1.2,2.8-1.2
		c1.1,0,2,0.4,2.6,1.2s1,1.8,1,3.1V136.4z M66.3,135.4h4.2c0-0.7-0.2-1.2-0.6-1.5c-0.3-0.4-0.8-0.5-1.4-0.5c-0.6,0-1.1,0.2-1.4,0.5
		C66.7,134.3,66.4,134.8,66.3,135.4z"/>
	<path d="M73.5,139.8v-1.8c0.5,0.3,0.9,0.6,1.4,0.8c0.5,0.2,0.9,0.3,1.2,0.3c0.3,0,0.6-0.1,0.9-0.3s0.4-0.4,0.4-0.6
		c0-0.2-0.1-0.4-0.2-0.6c-0.2-0.2-0.5-0.4-1-0.7c-1.1-0.6-1.7-1.1-2.1-1.5c-0.3-0.4-0.5-0.9-0.5-1.4c0-0.6,0.2-1.2,0.7-1.6
		c0.5-0.4,1.1-0.6,1.9-0.6c0.8,0,1.6,0.2,2.5,0.7v1.6c-1-0.6-1.8-0.9-2.4-0.9c-0.3,0-0.6,0.1-0.8,0.2c-0.2,0.1-0.3,0.3-0.3,0.5
		c0,0.2,0.1,0.4,0.3,0.5s0.5,0.4,0.9,0.6l0.6,0.3c1.4,0.8,2.1,1.6,2.1,2.6c0,0.7-0.3,1.2-0.8,1.7s-1.2,0.7-2,0.7
		c-0.5,0-0.9-0.1-1.3-0.2C74.5,140.3,74,140.1,73.5,139.8z"/>
</g>
<rect x="1.8" y="128.8" fill="#640E0E" width="11.7" height="11.7"/>
<g>
	<path d="M333.9,118.3v1.8c-1.2,0.7-2.6,1-4.3,1c-1.3,0-2.4-0.3-3.3-0.8c-0.9-0.5-1.6-1.2-2.2-2.2c-0.5-0.9-0.8-1.9-0.8-3
		c0-1.7,0.6-3.1,1.8-4.3c1.2-1.2,2.7-1.7,4.5-1.7c1.2,0,2.6,0.3,4.1,1v1.8c-1.4-0.8-2.7-1.2-4-1.2c-1.3,0-2.5,0.4-3.3,1.3
		s-1.3,1.9-1.3,3.2c0,1.3,0.4,2.3,1.3,3.2s2,1.2,3.3,1.2C331.1,119.6,332.5,119.2,333.9,118.3z"/>
	<path d="M339.4,113.3c1.2,0,2.1,0.4,2.9,1.1s1.2,1.7,1.2,2.9c0,1.1-0.4,2-1.2,2.8c-0.8,0.7-1.8,1.1-3,1.1c-1.2,0-2.1-0.4-2.9-1.1
		s-1.2-1.7-1.2-2.8c0-1.1,0.4-2.1,1.2-2.8C337.2,113.6,338.2,113.3,339.4,113.3z M339.3,114.6c-0.7,0-1.3,0.2-1.8,0.7
		c-0.5,0.5-0.7,1.1-0.7,1.8c0,0.7,0.2,1.3,0.7,1.8c0.5,0.5,1.1,0.7,1.9,0.7c0.7,0,1.4-0.2,1.8-0.7c0.5-0.5,0.7-1.1,0.7-1.8
		c0-0.7-0.2-1.3-0.7-1.8C340.7,114.9,340.1,114.6,339.3,114.6z"/>
	<path d="M351.5,115.4v5.6H350v-4.3c0-0.9-0.1-1.5-0.3-1.8c-0.2-0.3-0.6-0.5-1.2-0.5c-0.3,0-0.6,0.1-0.9,0.2
		c-0.3,0.1-0.6,0.4-0.9,0.8v5.6h-1.5v-7.7h1.5v1c0.8-0.8,1.5-1.2,2.3-1.2c1,0,1.7,0.5,2.3,1.4c0.8-0.9,1.7-1.4,2.6-1.4
		c0.7,0,1.4,0.3,1.8,0.8s0.7,1.4,0.7,2.5v4.6h-1.5v-4.6c0-0.6-0.1-1.1-0.4-1.5c-0.3-0.3-0.6-0.5-1.1-0.5
		C352.7,114.4,352.1,114.8,351.5,115.4z"/>
	<path d="M358.4,124.9v-11.6h2.7c1.4,0,2.4,0.3,3.2,1c0.8,0.7,1.1,1.6,1.1,2.9c0,1.2-0.4,2.1-1.1,2.9c-0.7,0.7-1.6,1.1-2.7,1.1
		c-0.5,0-1-0.1-1.6-0.3v4.1H358.4z M361,114.7h-1.1v4.7c0.5,0.2,1,0.4,1.5,0.4c0.7,0,1.3-0.2,1.8-0.7c0.5-0.5,0.7-1.1,0.7-1.9
		c0-0.5-0.1-0.9-0.3-1.3s-0.5-0.7-0.9-0.8S361.7,114.7,361,114.7z"/>
	<path d="M372,121v-1c-0.3,0.4-0.7,0.6-1.1,0.8c-0.4,0.2-0.8,0.3-1.2,0.3c-0.5,0-0.9-0.1-1.3-0.4c-0.4-0.2-0.7-0.6-0.9-1
		c-0.2-0.4-0.3-1.1-0.3-2.1v-4.4h1.5v4.4c0,0.8,0.1,1.4,0.3,1.7c0.2,0.3,0.6,0.5,1.2,0.5c0.7,0,1.3-0.4,1.9-1.1v-5.5h1.5v7.7H372z"
		/>
	<path d="M374.6,114.5l2.9-2.8v1.6h2.4v1.4h-2.4v3.8c0,0.9,0.4,1.3,1.1,1.3c0.5,0,1.1-0.2,1.7-0.5v1.4c-0.6,0.3-1.2,0.5-1.9,0.5
		c-0.7,0-1.3-0.2-1.7-0.6c-0.1-0.1-0.3-0.3-0.4-0.4c-0.1-0.2-0.2-0.4-0.2-0.6c-0.1-0.2-0.1-0.7-0.1-1.4v-3.4h-1.3V114.5z"/>
	<path d="M388,117.3h-5.4c0,0.7,0.3,1.3,0.7,1.8c0.5,0.4,1,0.7,1.8,0.7c1,0,1.9-0.3,2.8-0.9v1.5c-0.5,0.3-0.9,0.5-1.4,0.7
		c-0.5,0.1-1,0.2-1.6,0.2c-0.8,0-1.5-0.2-2.1-0.5c-0.5-0.4-0.9-0.8-1.3-1.4c-0.3-0.6-0.5-1.3-0.5-2.1c0-1.2,0.3-2.1,1-2.9
		c0.7-0.7,1.5-1.1,2.6-1.1c1,0,1.8,0.4,2.4,1.1c0.6,0.7,0.9,1.7,0.9,2.9V117.3z M382.6,116.4h3.9c0-0.6-0.2-1.1-0.5-1.4
		c-0.3-0.3-0.8-0.5-1.3-0.5s-1,0.2-1.3,0.5C382.9,115.3,382.7,115.8,382.6,116.4z"/>
	<path d="M391.3,113.3v1.8l0.1-0.1c0.7-1.2,1.5-1.8,2.2-1.8c0.6,0,1.2,0.3,1.8,0.9l-0.8,1.3c-0.5-0.5-1-0.8-1.5-0.8
		c-0.5,0-0.9,0.2-1.3,0.7c-0.4,0.5-0.5,1-0.5,1.7v4h-1.5v-7.7H391.3z"/>
	<path d="M411.4,118.3v1.8c-1.2,0.7-2.6,1-4.3,1c-1.3,0-2.4-0.3-3.3-0.8c-0.9-0.5-1.6-1.2-2.2-2.2c-0.5-0.9-0.8-1.9-0.8-3
		c0-1.7,0.6-3.1,1.8-4.3c1.2-1.2,2.7-1.7,4.5-1.7c1.2,0,2.6,0.3,4.1,1v1.8c-1.4-0.8-2.7-1.2-4-1.2c-1.3,0-2.5,0.4-3.3,1.3
		s-1.3,1.9-1.3,3.2c0,1.3,0.4,2.3,1.3,3.2s2,1.2,3.3,1.2C408.7,119.6,410.1,119.2,411.4,118.3z"/>
	<path d="M418.1,116.4v3.3c0,0.3,0.1,0.4,0.3,0.4c0.2,0,0.5-0.1,0.9-0.4v0.9c-0.3,0.2-0.6,0.4-0.8,0.5c-0.2,0.1-0.4,0.1-0.7,0.1
		c-0.7,0-1-0.3-1.2-0.8c-0.6,0.5-1.3,0.8-2.1,0.8c-0.5,0-1-0.2-1.3-0.5c-0.4-0.4-0.5-0.8-0.5-1.3c0-0.5,0.2-0.9,0.5-1.3
		s0.8-0.7,1.5-0.9l2-0.7v-0.4c0-0.9-0.5-1.4-1.4-1.4c-0.8,0-1.6,0.4-2.4,1.3v-1.7c0.6-0.7,1.4-1,2.6-1c0.8,0,1.5,0.2,2,0.7
		c0.2,0.1,0.3,0.3,0.5,0.6c0.1,0.2,0.2,0.5,0.3,0.7C418.1,115.3,418.1,115.7,418.1,116.4z M416.6,119.5v-2.3l-1,0.4
		c-0.5,0.2-0.9,0.4-1.1,0.6c-0.2,0.2-0.3,0.5-0.3,0.8c0,0.3,0.1,0.6,0.3,0.8s0.5,0.3,0.8,0.3C415.8,120.1,416.2,119.9,416.6,119.5z"
		/>
	<path d="M419.5,114.5l2.9-2.8v1.6h2.4v1.4h-2.4v3.8c0,0.9,0.4,1.3,1.1,1.3c0.5,0,1.1-0.2,1.7-0.5v1.4c-0.6,0.3-1.2,0.5-1.9,0.5
		c-0.7,0-1.3-0.2-1.7-0.6c-0.1-0.1-0.3-0.3-0.4-0.4c-0.1-0.2-0.2-0.4-0.2-0.6c-0.1-0.2-0.1-0.7-0.1-1.4v-3.4h-1.3V114.5z"/>
	<path d="M431.2,116.4v3.3c0,0.3,0.1,0.4,0.3,0.4c0.2,0,0.5-0.1,0.9-0.4v0.9c-0.3,0.2-0.6,0.4-0.8,0.5c-0.2,0.1-0.4,0.1-0.7,0.1
		c-0.7,0-1-0.3-1.2-0.8c-0.6,0.5-1.3,0.8-2.1,0.8c-0.5,0-1-0.2-1.3-0.5c-0.4-0.4-0.5-0.8-0.5-1.3c0-0.5,0.2-0.9,0.5-1.3
		s0.8-0.7,1.5-0.9l2-0.7v-0.4c0-0.9-0.5-1.4-1.4-1.4c-0.8,0-1.6,0.4-2.4,1.3v-1.7c0.6-0.7,1.4-1,2.6-1c0.8,0,1.5,0.2,2,0.7
		c0.2,0.1,0.3,0.3,0.5,0.6c0.1,0.2,0.2,0.5,0.3,0.7C431.2,115.3,431.2,115.7,431.2,116.4z M429.7,119.5v-2.3l-1,0.4
		c-0.5,0.2-0.9,0.4-1.1,0.6c-0.2,0.2-0.3,0.5-0.3,0.8c0,0.3,0.1,0.6,0.3,0.8s0.5,0.3,0.8,0.3C428.8,120.1,429.3,119.9,429.7,119.5z"
		/>
	<path d="M433.7,109.3h1.5V121h-1.5V109.3z"/>
	<path d="M441.1,113.3c1.2,0,2.1,0.4,2.9,1.1s1.2,1.7,1.2,2.9c0,1.1-0.4,2-1.2,2.8c-0.8,0.7-1.8,1.1-3,1.1c-1.2,0-2.1-0.4-2.9-1.1
		s-1.2-1.7-1.2-2.8c0-1.1,0.4-2.1,1.2-2.8C438.9,113.6,439.9,113.3,441.1,113.3z M441,114.6c-0.7,0-1.3,0.2-1.8,0.7
		c-0.5,0.5-0.7,1.1-0.7,1.8c0,0.7,0.2,1.3,0.7,1.8c0.5,0.5,1.1,0.7,1.9,0.7c0.7,0,1.4-0.2,1.8-0.7c0.5-0.5,0.7-1.1,0.7-1.8
		c0-0.7-0.2-1.3-0.7-1.8C442.4,114.9,441.8,114.6,441,114.6z"/>
	<path d="M446.5,115.9c0-0.8,0.3-1.5,0.9-1.9c0.6-0.5,1.4-0.7,2.5-0.7h3.2v1.2h-1.6c0.3,0.3,0.5,0.6,0.6,0.8
		c0.1,0.3,0.2,0.5,0.2,0.9c0,0.4-0.1,0.8-0.3,1.2c-0.2,0.4-0.5,0.7-0.9,0.9c-0.4,0.2-1,0.4-1.8,0.5c-0.6,0.1-0.9,0.3-0.9,0.6
		c0,0.2,0.1,0.3,0.3,0.4c0.2,0.1,0.6,0.2,1.2,0.4c0.9,0.2,1.6,0.4,1.8,0.5s0.5,0.3,0.7,0.5c0.4,0.4,0.6,0.8,0.6,1.4
		c0,0.7-0.3,1.3-1,1.8c-0.7,0.4-1.5,0.7-2.6,0.7c-1.1,0-2-0.2-2.6-0.7c-0.7-0.4-1-1-1-1.8c0-1,0.6-1.7,1.9-2c-0.5-0.3-0.8-0.7-0.8-1
		c0-0.2,0.1-0.5,0.3-0.7c0.2-0.2,0.5-0.3,0.9-0.4C447.1,117.9,446.5,117.1,446.5,115.9z M449,121.4c-0.5,0-0.9,0.1-1.3,0.3
		s-0.5,0.5-0.5,0.8c0,0.8,0.7,1.2,2.1,1.2c0.7,0,1.2-0.1,1.6-0.3c0.4-0.2,0.6-0.5,0.6-0.8c0-0.4-0.2-0.6-0.7-0.9
		C450.4,121.5,449.8,121.4,449,121.4z M449.4,114.6c-0.4,0-0.8,0.1-1.1,0.4c-0.3,0.3-0.4,0.6-0.4,1c0,0.4,0.1,0.7,0.4,1
		s0.6,0.4,1.1,0.4c0.4,0,0.8-0.1,1.1-0.4s0.4-0.6,0.4-1c0-0.4-0.1-0.7-0.4-1C450.2,114.7,449.8,114.6,449.4,114.6z"/>
</g>
<g>
	<path d="M333.9,142.6v1.8c-1.2,0.7-2.6,1-4.3,1c-1.3,0-2.4-0.3-3.3-0.8c-0.9-0.5-1.6-1.2-2.2-2.2c-0.5-0.9-0.8-1.9-0.8-3
		c0-1.7,0.6-3.1,1.8-4.3c1.2-1.2,2.7-1.7,4.5-1.7c1.2,0,2.6,0.3,4.1,1v1.8c-1.4-0.8-2.7-1.2-4-1.2c-1.3,0-2.5,0.4-3.3,1.3
		s-1.3,1.9-1.3,3.2c0,1.3,0.4,2.3,1.3,3.2s2,1.2,3.3,1.2C331.1,143.9,332.5,143.5,333.9,142.6z"/>
	<path d="M339.4,137.6c1.2,0,2.1,0.4,2.9,1.1s1.2,1.7,1.2,2.9c0,1.1-0.4,2-1.2,2.8c-0.8,0.7-1.8,1.1-3,1.1c-1.2,0-2.1-0.4-2.9-1.1
		s-1.2-1.7-1.2-2.8c0-1.1,0.4-2.1,1.2-2.8C337.2,138,338.2,137.6,339.4,137.6z M339.3,139c-0.7,0-1.3,0.2-1.8,0.7
		c-0.5,0.5-0.7,1.1-0.7,1.8c0,0.7,0.2,1.3,0.7,1.8c0.5,0.5,1.1,0.7,1.9,0.7c0.7,0,1.4-0.2,1.8-0.7c0.5-0.5,0.7-1.1,0.7-1.8
		c0-0.7-0.2-1.3-0.7-1.8C340.7,139.2,340.1,139,339.3,139z"/>
	<path d="M345.1,149.2v-11.6h2.7c1.4,0,2.4,0.3,3.2,1c0.8,0.7,1.1,1.6,1.1,2.9c0,1.2-0.4,2.1-1.1,2.9c-0.7,0.7-1.6,1.1-2.7,1.1
		c-0.5,0-1-0.1-1.6-0.3v4.1H345.1z M347.7,139h-1.1v4.7c0.5,0.2,1,0.4,1.5,0.4c0.7,0,1.3-0.2,1.8-0.7c0.5-0.5,0.7-1.1,0.7-1.9
		c0-0.5-0.1-0.9-0.3-1.3s-0.5-0.7-0.9-0.8S348.5,139,347.7,139z"/>
	<path d="M354.6,134.4c0.3,0,0.5,0.1,0.6,0.3c0.2,0.2,0.3,0.4,0.3,0.6c0,0.2-0.1,0.5-0.3,0.6s-0.4,0.3-0.6,0.3
		c-0.2,0-0.4-0.1-0.6-0.3s-0.3-0.4-0.3-0.6c0-0.2,0.1-0.4,0.3-0.6S354.4,134.4,354.6,134.4z M353.9,137.6h1.5v7.7h-1.5V137.6z"/>
	<path d="M364.2,141.6h-5.4c0,0.7,0.3,1.3,0.7,1.8c0.5,0.4,1,0.7,1.8,0.7c1,0,1.9-0.3,2.8-0.9v1.5c-0.5,0.3-0.9,0.5-1.4,0.7
		c-0.5,0.1-1,0.2-1.6,0.2c-0.8,0-1.5-0.2-2.1-0.5c-0.5-0.4-0.9-0.8-1.3-1.4c-0.3-0.6-0.5-1.3-0.5-2.1c0-1.2,0.3-2.1,1-2.9
		c0.7-0.7,1.5-1.1,2.6-1.1c1,0,1.8,0.4,2.4,1.1c0.6,0.7,0.9,1.7,0.9,2.9V141.6z M358.8,140.7h3.9c0-0.6-0.2-1.1-0.5-1.4
		c-0.3-0.3-0.8-0.5-1.3-0.5s-1,0.2-1.3,0.5C359.1,139.6,358.9,140.1,358.8,140.7z"/>
	<path d="M367.5,137.6v1.8l0.1-0.1c0.7-1.2,1.5-1.8,2.2-1.8c0.6,0,1.2,0.3,1.8,0.9l-0.8,1.3c-0.5-0.5-1-0.8-1.5-0.8
		c-0.5,0-0.9,0.2-1.3,0.7c-0.4,0.5-0.5,1-0.5,1.7v4h-1.5v-7.7H367.5z"/>
</g>
<path fill="#43505F" d="M307.5,115.9c0.4,0,0.7-0.3,0.7-0.7v-5.8c0-0.4-0.3-0.7-0.7-0.7h-8.9c-0.4,0-0.7,0.3-0.7,0.7v5.8
	c0,0.4,0.3,0.7,0.7,0.7h2.4v1.6l-3,1.7v1.1h10.3v-1.1l-3.2-1.7v-1.6H307.5z M299.6,115.1c-0.3,0-0.5-0.2-0.5-0.5v-4.4
	c0-0.3,0.2-0.5,0.5-0.5h6.8c0.3,0,0.5,0.2,0.5,0.5v4.4c0,0.3-0.2,0.5-0.5,0.5H299.6z"/>
<g>
	<rect x="296.4" y="132.8" fill="#43505F" width="12.6" height="4.6"/>
	<rect x="296.4" y="130.4" fill="#43505F" width="12.6" height="1.7"/>
	<polygon fill="#43505F" points="303.1,128.8 303.3,127.6 296.5,128.8 296.5,129.9 307.3,129.9 307.3,128.8 	"/>
	<polygon fill="#43505F" points="309.5,136.1 309.5,135 313,132.8 	"/>
	<polygon fill="#43505F" points="295.9,135.1 291.9,134.5 295.9,136.6 	"/>
	<rect x="297.1" y="138.1" fill="#43505F" width="11.3" height="7.5"/>
</g>
<g>
</g>
<g>
</g>
<g>
</g>
<g>
</g>
<g>
</g>
<g>
</g>
</svg>
